<svg width="364" height="566" viewBox="0 0 364 566" fill="none" xmlns="http://www.w3.org/2000/svg">
<rect width="364" height="566" rx="32" fill="white"/>
<circle cx="191" cy="479" r="5" fill="#C4C4C4"/>
<circle cx="210" cy="479" r="5" fill="#C4C4C4"/>
<circle r="5" transform="matrix(-1 0 0 1 172 479)" fill="#8DBBFF"/>
<circle r="5" transform="matrix(-1 0 0 1 153 479)" fill="#C4C4C4"/>
<rect x="57" y="505" width="250" height="40" rx="20" fill="#2E71FE"/>
<path d="M162.256 529.232V526.112H166.6V525.356H162.256V522.368H167.128V521.6H161.368V530H167.308V529.232H162.256ZM172.431 523.64C171.339 523.64 170.487 524.084 170.031 524.852V523.688H169.215V530H170.067V526.688C170.067 525.248 170.919 524.408 172.275 524.408C173.475 524.408 174.171 525.092 174.171 526.424V530H175.023V526.34C175.023 524.528 173.967 523.64 172.431 523.64ZM180.36 529.004C180.12 529.22 179.772 529.328 179.424 529.328C178.716 529.328 178.332 528.92 178.332 528.176V524.408H180.252V523.688H178.332V522.308H177.48V523.688H176.352V524.408H177.48V528.224C177.48 529.388 178.14 530.06 179.328 530.06C179.82 530.06 180.324 529.916 180.66 529.616L180.36 529.004ZM187.497 526.844C187.497 524.948 186.213 523.64 184.437 523.64C182.661 523.64 181.353 524.972 181.353 526.844C181.353 528.716 182.697 530.06 184.665 530.06C185.661 530.06 186.537 529.7 187.101 529.028L186.621 528.476C186.141 529.028 185.457 529.304 184.689 529.304C183.309 529.304 182.301 528.428 182.205 527.108H187.485C187.485 527.012 187.497 526.916 187.497 526.844ZM184.437 524.372C185.673 524.372 186.573 525.236 186.681 526.472H182.205C182.313 525.236 183.213 524.372 184.437 524.372ZM192.447 523.64C191.355 523.64 190.503 524.084 190.047 524.852V523.688H189.231V530H190.083V526.688C190.083 525.248 190.935 524.408 192.291 524.408C193.491 524.408 194.187 525.092 194.187 526.424V530H195.039V526.34C195.039 524.528 193.983 523.64 192.447 523.64ZM202.284 521.096V524.888C201.756 524.072 200.892 523.64 199.884 523.64C198.084 523.64 196.74 524.936 196.74 526.844C196.74 528.752 198.084 530.06 199.884 530.06C200.928 530.06 201.804 529.604 202.32 528.752V530H203.136V521.096H202.284ZM199.956 529.304C198.612 529.304 197.604 528.32 197.604 526.844C197.604 525.368 198.612 524.384 199.956 524.384C201.288 524.384 202.296 525.368 202.296 526.844C202.296 528.32 201.288 529.304 199.956 529.304ZM205.94 522.308C206.3 522.308 206.564 522.032 206.564 521.684C206.564 521.36 206.288 521.096 205.94 521.096C205.592 521.096 205.316 521.372 205.316 521.696C205.316 522.032 205.592 522.308 205.94 522.308ZM205.508 530H206.36V523.688H205.508V530ZM208.767 527.48H209.427L209.607 521.6H208.599L208.767 527.48ZM209.103 530.06C209.463 530.06 209.727 529.772 209.727 529.436C209.727 529.088 209.463 528.824 209.103 528.824C208.743 528.824 208.467 529.088 208.467 529.436C208.467 529.772 208.743 530.06 209.103 530.06Z" fill="white"/>
<path fill-rule="evenodd" clip-rule="evenodd" d="M214.056 199.99L198.954 154.068C197.781 149.838 194.696 146.302 190.443 144.655C186.414 143.244 181.442 144.186 177.894 146.771L168.901 153.364C159.2 160.426 145.713 161.603 135.067 156.186L125.118 151.484C120.862 149.359 116.125 149.359 112.343 151.484C108.552 153.835 105.95 157.832 105.476 162.073L97.9045 214.559L97.1961 219.731C87.9636 217.614 81.3364 216.205 75.8907 216.676C67.6135 217.381 63.823 222.796 64.5421 232.446C66.1576 260.932 111.453 271.48 157.053 268.113C157.146 257.04 159.814 246.581 164.487 237.305C146.032 239.694 126.856 237.483 101.93 230.564L104.059 216.909C128.495 226.045 151.806 227.845 174.665 222.317C184.758 210.949 198.501 202.894 214.056 199.99Z" fill="#606060"/>
<rect x="194.514" y="226.255" width="105.172" height="15.7758" rx="7.88792" transform="rotate(45 194.514 226.255)" fill="#D30D0D"/>
<rect x="268.138" y="237.41" width="105.172" height="15.7758" rx="7.88792" transform="rotate(135 268.138 237.41)" fill="#D30D0D"/>
<path d="M87.0479 376.8V387.85L77.9999 376.8H74.5159V395H78.6759V383.95L87.7499 395H91.2079V376.8H87.0479ZM99.596 377.658C100.532 377.658 101.442 379.296 103.236 379.296C105.056 379.296 106.226 377.814 106.278 375.578H104.224C104.172 376.436 103.678 376.982 102.976 376.982C102.04 376.982 101.13 375.318 99.336 375.318C97.516 375.318 96.346 376.8 96.294 379.114H98.348C98.4 378.178 98.894 377.658 99.596 377.658ZM100.87 380.804C98.634 380.804 96.372 381.402 94.838 382.494L96.294 385.328C97.308 384.522 98.842 384.028 100.324 384.028C102.508 384.028 103.548 385.042 103.548 386.784H100.324C96.06 386.784 94.318 388.5 94.318 390.97C94.318 393.388 96.268 395.208 99.544 395.208C101.598 395.208 103.054 394.532 103.808 393.258V395H107.604V387.018C107.604 382.78 105.134 380.804 100.87 380.804ZM100.558 392.478C99.128 392.478 98.27 391.802 98.27 390.788C98.27 389.852 98.868 389.15 100.766 389.15H103.548V390.58C103.08 391.854 101.91 392.478 100.558 392.478ZM118.083 395.208C122.529 395.208 125.753 392.218 125.753 388.006C125.753 383.794 122.529 380.804 118.083 380.804C113.637 380.804 110.387 383.794 110.387 388.006C110.387 392.218 113.637 395.208 118.083 395.208ZM118.083 391.88C116.055 391.88 114.495 390.424 114.495 388.006C114.495 385.588 116.055 384.132 118.083 384.132C120.111 384.132 121.645 385.588 121.645 388.006C121.645 390.424 120.111 391.88 118.083 391.88ZM145.864 381.012V387.928C145.864 390.502 144.512 391.698 142.64 391.698C140.846 391.698 139.806 390.658 139.806 388.318V381.012H135.75V388.916C135.75 393.232 138.22 395.208 141.73 395.208C143.446 395.208 145.006 394.558 146.072 393.336V395H149.92V381.012H145.864ZM158.383 395.208C162.569 395.208 164.987 393.362 164.987 390.762C164.987 385.25 156.537 387.564 156.537 385.172C156.537 384.444 157.317 383.872 159.137 383.872C160.411 383.872 161.789 384.132 163.167 384.912L164.519 382.026C163.193 381.246 161.061 380.804 159.137 380.804C155.055 380.804 152.663 382.676 152.663 385.328C152.663 390.918 161.113 388.578 161.113 390.866C161.113 391.646 160.411 392.14 158.539 392.14C156.823 392.14 154.925 391.594 153.677 390.788L152.325 393.7C153.625 394.558 156.017 395.208 158.383 395.208ZM181.192 388.058C181.192 383.56 178.02 380.804 173.912 380.804C169.648 380.804 166.45 383.82 166.45 388.006C166.45 392.166 169.596 395.208 174.432 395.208C176.954 395.208 178.904 394.428 180.204 392.946L178.046 390.606C177.084 391.516 176.018 391.958 174.536 391.958C172.404 391.958 170.922 390.892 170.532 389.15H181.114C181.14 388.812 181.192 388.37 181.192 388.058ZM173.938 383.872C175.758 383.872 177.084 385.016 177.37 386.784H170.48C170.766 384.99 172.092 383.872 173.938 383.872ZM198.015 395.208C200.953 395.208 203.267 393.908 204.281 391.672L201.135 389.956C200.381 391.308 199.263 391.88 197.989 391.88C195.935 391.88 194.323 390.45 194.323 388.006C194.323 385.562 195.935 384.132 197.989 384.132C199.263 384.132 200.381 384.73 201.135 386.056L204.281 384.366C203.267 382.078 200.953 380.804 198.015 380.804C193.465 380.804 190.215 383.794 190.215 388.006C190.215 392.218 193.465 395.208 198.015 395.208ZM215.017 380.804C213.223 380.804 211.663 381.376 210.571 382.468V375.708H206.515V395H210.571V388.084C210.571 385.51 211.975 384.314 213.925 384.314C215.719 384.314 216.759 385.354 216.759 387.616V395H220.815V386.992C220.815 382.728 218.319 380.804 215.017 380.804ZM230.134 380.804C227.898 380.804 225.636 381.402 224.102 382.494L225.558 385.328C226.572 384.522 228.106 384.028 229.588 384.028C231.772 384.028 232.812 385.042 232.812 386.784H229.588C225.324 386.784 223.582 388.5 223.582 390.97C223.582 393.388 225.532 395.208 228.808 395.208C230.862 395.208 232.318 394.532 233.072 393.258V395H236.868V387.018C236.868 382.78 234.398 380.804 230.134 380.804ZM229.822 392.478C228.392 392.478 227.534 391.802 227.534 390.788C227.534 389.852 228.132 389.15 230.03 389.15H232.812V390.58C232.344 391.854 231.174 392.478 229.822 392.478ZM248.807 380.804C246.935 380.804 245.427 381.402 244.413 382.624V381.012H240.539V400.044H244.595V393.518C245.635 394.662 247.065 395.208 248.807 395.208C252.733 395.208 255.775 392.4 255.775 388.006C255.775 383.612 252.733 380.804 248.807 380.804ZM248.105 391.88C246.077 391.88 244.543 390.424 244.543 388.006C244.543 385.588 246.077 384.132 248.105 384.132C250.133 384.132 251.667 385.588 251.667 388.006C251.667 390.424 250.133 391.88 248.105 391.88ZM270.346 375.474H265.978L262.468 379.218H265.64L270.346 375.474ZM272.192 388.058C272.192 383.56 269.02 380.804 264.912 380.804C260.648 380.804 257.45 383.82 257.45 388.006C257.45 392.166 260.596 395.208 265.432 395.208C267.954 395.208 269.904 394.428 271.204 392.946L269.046 390.606C268.084 391.516 267.018 391.958 265.536 391.958C263.404 391.958 261.922 390.892 261.532 389.15H272.114C272.14 388.812 272.192 388.37 272.192 388.058ZM264.938 383.872C266.758 383.872 268.084 385.016 268.37 386.784H261.48C261.766 384.99 263.092 383.872 264.938 383.872ZM284.928 381.012V387.928C284.928 390.502 283.576 391.698 281.704 391.698C279.91 391.698 278.87 390.658 278.87 388.318V381.012H274.814V388.916C274.814 393.232 277.284 395.208 280.794 395.208C282.51 395.208 284.07 394.558 285.136 393.336V395H288.984V381.012H284.928ZM134.257 427.208C138.703 427.208 141.927 424.218 141.927 420.006C141.927 415.794 138.703 412.804 134.257 412.804C129.811 412.804 126.561 415.794 126.561 420.006C126.561 424.218 129.811 427.208 134.257 427.208ZM134.257 423.88C132.229 423.88 130.669 422.424 130.669 420.006C130.669 417.588 132.229 416.132 134.257 416.132C136.285 416.132 137.819 417.588 137.819 420.006C137.819 422.424 136.285 423.88 134.257 423.88ZM154.674 413.012V419.928C154.674 422.502 153.322 423.698 151.45 423.698C149.656 423.698 148.616 422.658 148.616 420.318V413.012H144.56V420.916C144.56 425.232 147.03 427.208 150.54 427.208C152.256 427.208 153.816 426.558 154.882 425.336V427H158.73V413.012H154.674ZM178.119 412.804C176.377 412.804 174.947 413.35 173.907 414.494V407.708H169.851V427H173.725V425.388C174.739 426.61 176.247 427.208 178.119 427.208C182.045 427.208 185.087 424.4 185.087 420.006C185.087 415.612 182.045 412.804 178.119 412.804ZM177.417 423.88C175.389 423.88 173.855 422.424 173.855 420.006C173.855 417.588 175.389 416.132 177.417 416.132C179.445 416.132 180.979 417.588 180.979 420.006C180.979 422.424 179.445 423.88 177.417 423.88ZM194.458 427.208C198.904 427.208 202.128 424.218 202.128 420.006C202.128 415.794 198.904 412.804 194.458 412.804C190.012 412.804 186.762 415.794 186.762 420.006C186.762 424.218 190.012 427.208 194.458 427.208ZM194.458 423.88C192.43 423.88 190.87 422.424 190.87 420.006C190.87 417.588 192.43 416.132 194.458 416.132C196.486 416.132 198.02 417.588 198.02 420.006C198.02 422.424 196.486 423.88 194.458 423.88ZM213.341 412.804C211.443 412.804 209.805 413.454 208.713 414.65V413.012H204.839V427H208.895V420.084C208.895 417.51 210.299 416.314 212.249 416.314C214.043 416.314 215.083 417.354 215.083 419.616V427H219.139V418.992C219.139 414.728 216.643 412.804 213.341 412.804ZM234.824 407.474H230.456L226.946 411.218H230.118L234.824 407.474ZM236.67 420.058C236.67 415.56 233.498 412.804 229.39 412.804C225.126 412.804 221.928 415.82 221.928 420.006C221.928 424.166 225.074 427.208 229.91 427.208C232.432 427.208 234.382 426.428 235.682 424.946L233.524 422.606C232.562 423.516 231.496 423.958 230.014 423.958C227.882 423.958 226.4 422.892 226.01 421.15H236.592C236.618 420.812 236.67 420.37 236.67 420.058ZM229.416 415.872C231.236 415.872 232.562 417.016 232.848 418.784H225.958C226.244 416.99 227.57 415.872 229.416 415.872Z" fill="#606060"/>
<path d="M120.269 55.74V53.4H110.747V66H113.663V61.41H119.495V59.07H113.663V55.74H120.269ZM123.273 54.966C124.317 54.966 125.019 54.282 125.019 53.346C125.019 52.482 124.317 51.834 123.273 51.834C122.229 51.834 121.527 52.518 121.527 53.4C121.527 54.282 122.229 54.966 123.273 54.966ZM121.869 66H124.677V56.316H121.869V66ZM134.429 56.316V57.432C133.727 56.586 132.701 56.172 131.405 56.172C128.669 56.172 126.563 58.116 126.563 61.158C126.563 64.2 128.669 66.144 131.405 66.144C132.593 66.144 133.601 65.766 134.303 64.974V69.492H137.111V56.316H134.429ZM131.891 63.84C130.487 63.84 129.407 62.832 129.407 61.158C129.407 59.484 130.487 58.476 131.891 58.476C133.277 58.476 134.357 59.484 134.357 61.158C134.357 62.832 133.277 63.84 131.891 63.84ZM146.659 56.316V61.104C146.659 62.886 145.723 63.714 144.427 63.714C143.185 63.714 142.465 62.994 142.465 61.374V56.316H139.657V61.788C139.657 64.776 141.367 66.144 143.797 66.144C144.985 66.144 146.065 65.694 146.803 64.848V66H149.467V56.316H146.659ZM161.554 61.194C161.554 58.08 159.358 56.172 156.514 56.172C153.562 56.172 151.348 58.26 151.348 61.158C151.348 64.038 153.526 66.144 156.874 66.144C158.62 66.144 159.97 65.604 160.87 64.578L159.376 62.958C158.71 63.588 157.972 63.894 156.946 63.894C155.47 63.894 154.444 63.156 154.174 61.95H161.5C161.518 61.716 161.554 61.41 161.554 61.194ZM156.532 58.296C157.792 58.296 158.71 59.088 158.908 60.312H154.138C154.336 59.07 155.254 58.296 156.532 58.296ZM172.428 56.172C170.88 56.172 169.314 56.586 168.252 57.342L169.26 59.304C169.962 58.746 171.024 58.404 172.05 58.404C173.562 58.404 174.282 59.106 174.282 60.312H172.05C169.098 60.312 167.892 61.5 167.892 63.21C167.892 64.884 169.242 66.144 171.51 66.144C172.932 66.144 173.94 65.676 174.462 64.794V66H177.09V60.474C177.09 57.54 175.38 56.172 172.428 56.172ZM172.212 64.254C171.222 64.254 170.628 63.786 170.628 63.084C170.628 62.436 171.042 61.95 172.356 61.95H174.282V62.94C173.958 63.822 173.148 64.254 172.212 64.254ZM185.121 63.552C184.815 63.786 184.401 63.912 183.987 63.912C183.231 63.912 182.781 63.462 182.781 62.634V58.692H185.193V56.532H182.781V54.174H179.973V56.532H178.479V58.692H179.973V62.67C179.973 64.974 181.305 66.144 183.591 66.144C184.455 66.144 185.301 65.946 185.877 65.532L185.121 63.552ZM196.64 61.194C196.64 58.08 194.444 56.172 191.6 56.172C188.648 56.172 186.434 58.26 186.434 61.158C186.434 64.038 188.612 66.144 191.96 66.144C193.706 66.144 195.056 65.604 195.956 64.578L194.462 62.958C193.796 63.588 193.058 63.894 192.032 63.894C190.556 63.894 189.53 63.156 189.26 61.95H196.586C196.604 61.716 196.64 61.41 196.64 61.194ZM191.618 58.296C192.878 58.296 193.796 59.088 193.994 60.312H189.224C189.422 59.07 190.34 58.296 191.618 58.296ZM204.396 56.172C203.082 56.172 201.948 56.622 201.192 57.45V56.316H198.51V66H201.318V61.212C201.318 59.43 202.29 58.602 203.64 58.602C204.882 58.602 205.602 59.322 205.602 60.888V66H208.41V60.456C208.41 57.504 206.682 56.172 204.396 56.172ZM216.445 63.552C216.139 63.786 215.725 63.912 215.311 63.912C214.555 63.912 214.105 63.462 214.105 62.634V58.692H216.517V56.532H214.105V54.174H211.297V56.532H209.803V58.692H211.297V62.67C211.297 64.974 212.629 66.144 214.915 66.144C215.779 66.144 216.625 65.946 217.201 65.532L216.445 63.552ZM223.087 66.144C226.165 66.144 228.397 64.074 228.397 61.158C228.397 58.242 226.165 56.172 223.087 56.172C220.009 56.172 217.759 58.242 217.759 61.158C217.759 64.074 220.009 66.144 223.087 66.144ZM223.087 63.84C221.683 63.84 220.603 62.832 220.603 61.158C220.603 59.484 221.683 58.476 223.087 58.476C224.491 58.476 225.553 59.484 225.553 61.158C225.553 62.832 224.491 63.84 223.087 63.84ZM241.203 55.074L238.773 52.482H235.749L239.007 55.074H241.203ZM239.277 56.172C237.729 56.172 236.163 56.586 235.101 57.342L236.109 59.304C236.811 58.746 237.873 58.404 238.899 58.404C240.411 58.404 241.131 59.106 241.131 60.312H238.899C235.947 60.312 234.741 61.5 234.741 63.21C234.741 64.884 236.091 66.144 238.359 66.144C239.781 66.144 240.789 65.676 241.311 64.794V66H243.939V60.474C243.939 57.54 242.229 56.172 239.277 56.172ZM239.061 64.254C238.071 64.254 237.477 63.786 237.477 63.084C237.477 62.436 237.891 61.95 239.205 61.95H241.131V62.94C240.807 63.822 239.997 64.254 239.061 64.254ZM249.739 66.144C252.637 66.144 254.311 64.866 254.311 63.066C254.311 59.25 248.461 60.852 248.461 59.196C248.461 58.692 249.001 58.296 250.261 58.296C251.143 58.296 252.097 58.476 253.051 59.016L253.987 57.018C253.069 56.478 251.593 56.172 250.261 56.172C247.435 56.172 245.779 57.468 245.779 59.304C245.779 63.174 251.629 61.554 251.629 63.138C251.629 63.678 251.143 64.02 249.847 64.02C248.659 64.02 247.345 63.642 246.481 63.084L245.545 65.1C246.445 65.694 248.101 66.144 249.739 66.144ZM132.809 76.966C133.853 76.966 134.555 76.282 134.555 75.346C134.555 74.482 133.853 73.834 132.809 73.834C131.765 73.834 131.063 74.518 131.063 75.4C131.063 76.282 131.765 76.966 132.809 76.966ZM131.405 88H134.213V78.316H131.405V88ZM142.705 78.172C141.391 78.172 140.257 78.622 139.501 79.45V78.316H136.819V88H139.627V83.212C139.627 81.43 140.599 80.602 141.949 80.602C143.191 80.602 143.911 81.322 143.911 82.888V88H146.719V82.456C146.719 79.504 144.991 78.172 142.705 78.172ZM152.523 88.144C155.421 88.144 157.095 86.866 157.095 85.066C157.095 81.25 151.245 82.852 151.245 81.196C151.245 80.692 151.785 80.296 153.045 80.296C153.927 80.296 154.881 80.476 155.835 81.016L156.771 79.018C155.853 78.478 154.377 78.172 153.045 78.172C150.219 78.172 148.563 79.468 148.563 81.304C148.563 85.174 154.413 83.554 154.413 85.138C154.413 85.678 153.927 86.02 152.631 86.02C151.443 86.02 150.129 85.642 149.265 85.084L148.329 87.1C149.229 87.694 150.885 88.144 152.523 88.144ZM164.317 85.552C164.011 85.786 163.597 85.912 163.183 85.912C162.427 85.912 161.977 85.462 161.977 84.634V80.692H164.389V78.532H161.977V76.174H159.169V78.532H157.675V80.692H159.169V84.67C159.169 86.974 160.501 88.144 162.787 88.144C163.651 88.144 164.497 87.946 165.073 87.532L164.317 85.552ZM169.332 79.594V78.316H166.65V88H169.458V83.428C169.458 81.574 170.484 80.728 172.032 80.728C172.248 80.728 172.428 80.746 172.662 80.764V78.172C171.168 78.172 170.016 78.658 169.332 79.594ZM181.349 78.316V83.104C181.349 84.886 180.413 85.714 179.117 85.714C177.875 85.714 177.155 84.994 177.155 83.374V78.316H174.347V83.788C174.347 86.776 176.057 88.144 178.487 88.144C179.675 88.144 180.755 87.694 181.493 86.848V88H184.157V78.316H181.349ZM191.421 85.84C189.999 85.84 188.883 84.85 188.883 83.158C188.883 81.466 189.999 80.476 191.421 80.476C192.303 80.476 193.077 80.89 193.599 81.808L195.777 80.638C195.075 79.054 193.473 78.172 191.439 78.172C188.289 78.172 186.039 80.242 186.039 83.158C186.039 85.678 187.713 87.568 190.215 88.036L189.783 89.764H190.395C191.025 89.764 191.277 89.98 191.277 90.286C191.277 90.628 191.007 90.862 190.341 90.862C189.909 90.862 189.513 90.754 189.171 90.592L188.739 91.798C189.153 92.032 189.783 92.176 190.413 92.176C192.015 92.176 193.059 91.492 193.059 90.394C193.059 89.656 192.591 89.026 191.493 88.9L191.673 88.144C193.599 88.072 195.111 87.19 195.777 85.696L193.599 84.508C193.077 85.444 192.303 85.84 191.421 85.84ZM203.193 77.128C204.453 77.128 205.263 76.102 205.299 74.554H203.877C203.841 75.148 203.499 75.526 203.013 75.526C202.365 75.526 201.735 74.374 200.493 74.374C199.233 74.374 198.423 75.4 198.387 77.002H199.809C199.845 76.354 200.187 75.994 200.673 75.994C201.321 75.994 201.951 77.128 203.193 77.128ZM201.879 88.144C204.957 88.144 207.189 86.074 207.189 83.158C207.189 80.242 204.957 78.172 201.879 78.172C198.801 78.172 196.551 80.242 196.551 83.158C196.551 86.074 198.801 88.144 201.879 88.144ZM201.879 85.84C200.475 85.84 199.395 84.832 199.395 83.158C199.395 81.484 200.475 80.476 201.879 80.476C203.283 80.476 204.345 81.484 204.345 83.158C204.345 84.832 203.283 85.84 201.879 85.84ZM218.552 83.194C218.552 80.08 216.356 78.172 213.512 78.172C210.56 78.172 208.346 80.26 208.346 83.158C208.346 86.038 210.524 88.144 213.872 88.144C215.618 88.144 216.968 87.604 217.868 86.578L216.374 84.958C215.708 85.588 214.97 85.894 213.944 85.894C212.468 85.894 211.442 85.156 211.172 83.95H218.498C218.516 83.716 218.552 83.41 218.552 83.194ZM213.53 80.296C214.79 80.296 215.708 81.088 215.906 82.312H211.136C211.334 81.07 212.252 80.296 213.53 80.296ZM223.679 88.144C226.577 88.144 228.251 86.866 228.251 85.066C228.251 81.25 222.401 82.852 222.401 81.196C222.401 80.692 222.941 80.296 224.201 80.296C225.083 80.296 226.037 80.476 226.991 81.016L227.927 79.018C227.009 78.478 225.533 78.172 224.201 78.172C221.375 78.172 219.719 79.468 219.719 81.304C219.719 85.174 225.569 83.554 225.569 85.138C225.569 85.678 225.083 86.02 223.787 86.02C222.599 86.02 221.285 85.642 220.421 85.084L219.485 87.1C220.385 87.694 222.041 88.144 223.679 88.144ZM230.182 83.626H232.414L232.972 75.4H229.624L230.182 83.626ZM231.298 88.144C232.306 88.144 233.026 87.406 233.026 86.506C233.026 85.588 232.306 84.904 231.298 84.904C230.29 84.904 229.57 85.588 229.57 86.506C229.57 87.406 230.29 88.144 231.298 88.144Z" fill="#4B4B4B"/>
</svg>
