<svg width="364" height="566" viewBox="0 0 364 566" fill="none" xmlns="http://www.w3.org/2000/svg">
<rect width="364" height="566" rx="32" fill="white"/>
<rect x="57" y="505" width="250" height="40" rx="20" fill="#2E71FE"/>
<path d="M162.256 529.232V526.112H166.6V525.356H162.256V522.368H167.128V521.6H161.368V530H167.308V529.232H162.256ZM172.431 523.64C171.339 523.64 170.487 524.084 170.031 524.852V523.688H169.215V530H170.067V526.688C170.067 525.248 170.919 524.408 172.275 524.408C173.475 524.408 174.171 525.092 174.171 526.424V530H175.023V526.34C175.023 524.528 173.967 523.64 172.431 523.64ZM180.36 529.004C180.12 529.22 179.772 529.328 179.424 529.328C178.716 529.328 178.332 528.92 178.332 528.176V524.408H180.252V523.688H178.332V522.308H177.48V523.688H176.352V524.408H177.48V528.224C177.48 529.388 178.14 530.06 179.328 530.06C179.82 530.06 180.324 529.916 180.66 529.616L180.36 529.004ZM187.497 526.844C187.497 524.948 186.213 523.64 184.437 523.64C182.661 523.64 181.353 524.972 181.353 526.844C181.353 528.716 182.697 530.06 184.665 530.06C185.661 530.06 186.537 529.7 187.101 529.028L186.621 528.476C186.141 529.028 185.457 529.304 184.689 529.304C183.309 529.304 182.301 528.428 182.205 527.108H187.485C187.485 527.012 187.497 526.916 187.497 526.844ZM184.437 524.372C185.673 524.372 186.573 525.236 186.681 526.472H182.205C182.313 525.236 183.213 524.372 184.437 524.372ZM192.447 523.64C191.355 523.64 190.503 524.084 190.047 524.852V523.688H189.231V530H190.083V526.688C190.083 525.248 190.935 524.408 192.291 524.408C193.491 524.408 194.187 525.092 194.187 526.424V530H195.039V526.34C195.039 524.528 193.983 523.64 192.447 523.64ZM202.284 521.096V524.888C201.756 524.072 200.892 523.64 199.884 523.64C198.084 523.64 196.74 524.936 196.74 526.844C196.74 528.752 198.084 530.06 199.884 530.06C200.928 530.06 201.804 529.604 202.32 528.752V530H203.136V521.096H202.284ZM199.956 529.304C198.612 529.304 197.604 528.32 197.604 526.844C197.604 525.368 198.612 524.384 199.956 524.384C201.288 524.384 202.296 525.368 202.296 526.844C202.296 528.32 201.288 529.304 199.956 529.304ZM205.94 522.308C206.3 522.308 206.564 522.032 206.564 521.684C206.564 521.36 206.288 521.096 205.94 521.096C205.592 521.096 205.316 521.372 205.316 521.696C205.316 522.032 205.592 522.308 205.94 522.308ZM205.508 530H206.36V523.688H205.508V530ZM208.767 527.48H209.427L209.607 521.6H208.599L208.767 527.48ZM209.103 530.06C209.463 530.06 209.727 529.772 209.727 529.436C209.727 529.088 209.463 528.824 209.103 528.824C208.743 528.824 208.467 529.088 208.467 529.436C208.467 529.772 208.743 530.06 209.103 530.06Z" fill="white"/>
<circle cx="191" cy="479" r="5" fill="#C4C4C4"/>
<circle cx="210" cy="479" r="5" fill="#8DBBFF"/>
<circle r="5" transform="matrix(-1 0 0 1 172 479)" fill="#C4C4C4"/>
<circle r="5" transform="matrix(-1 0 0 1 153 479)" fill="#C4C4C4"/>
<path d="M230.913 292.002C230.272 289.555 228.717 287.447 226.569 286.111L204.466 272.38L202.489 290.912L188.921 319.321C188.921 319.321 184.061 319.321 182.416 319.321H177.661H175.827L162.34 290.908L160.363 272.376L138.263 286.109C136.113 287.442 134.558 289.551 133.919 291.999L126.763 319.321H175.827H177.661H182.332H182.416H187.175H188.921H238.071L230.913 292.002Z" fill="#606060"/>
<path d="M149.402 238.766C150.419 244.079 152.182 246.774 154.644 246.774C155.108 246.774 155.52 246.673 155.881 246.53C160.031 262.187 169.526 271.855 182.071 271.855C194.657 271.855 204.178 262.121 208.305 246.37C208.744 246.594 209.276 246.774 209.893 246.776C212.355 246.776 214.118 244.081 215.135 238.769C216.767 230.234 217.344 223.733 215.179 220.492C227.572 190.502 201.962 176.183 194.025 183.351C194.025 183.351 189.25 178.08 177.718 178.08C145.965 178.08 142.762 207.439 148.08 224.484C147.664 228.031 148.284 232.918 149.402 238.766ZM182.071 269.876C167.681 269.876 157.605 255.849 155.852 234.35C159.05 221.12 162.808 212.956 175.664 209.688C189.103 206.275 193.695 198.171 193.695 198.171C193.695 198.171 194.807 201.962 201.602 207.272C205.788 210.547 207.652 215.8 208.426 220.667C208.529 222.831 208.588 225.108 208.588 227.546C208.588 252.864 197.932 269.876 182.071 269.876Z" fill="#606060"/>
<path d="M187.978 319.195H177.061L178.512 292.589H178.935H186.365H186.788L187.978 319.195ZM174.388 279.143L178.414 291.473H178.738H186.564H186.888L190.914 279.143H174.388Z" fill="#606060"/>
<path fill-rule="evenodd" clip-rule="evenodd" d="M115.2 238.014C117.302 238.014 119.006 239.718 119.006 241.82V285.968H163.155C165.257 285.968 166.961 287.672 166.961 289.774C166.961 291.876 165.257 293.58 163.155 293.58H119.006C114.802 293.58 111.395 290.172 111.395 285.968V241.82C111.395 239.718 113.098 238.014 115.2 238.014Z" fill="#606060"/>
<path fill-rule="evenodd" clip-rule="evenodd" d="M115.2 207.566C117.302 207.566 119.006 205.862 119.006 203.761V159.612H163.155C165.257 159.612 166.961 157.908 166.961 155.806C166.961 153.704 165.257 152 163.155 152H119.006C114.802 152 111.395 155.408 111.395 159.612V203.761C111.395 205.862 113.098 207.566 115.2 207.566Z" fill="#606060"/>
<path fill-rule="evenodd" clip-rule="evenodd" d="M249.168 238.014C247.066 238.014 245.362 239.718 245.362 241.82V285.968H201.214C199.112 285.968 197.408 287.672 197.408 289.774C197.408 291.876 199.112 293.58 201.214 293.58H245.362C249.566 293.58 252.974 290.172 252.974 285.968V241.82C252.974 239.718 251.27 238.014 249.168 238.014Z" fill="#606060"/>
<path fill-rule="evenodd" clip-rule="evenodd" d="M249.168 207.566C247.066 207.566 245.362 205.862 245.362 203.761V159.612H201.214C199.112 159.612 197.408 157.908 197.408 155.806C197.408 153.704 199.112 152 201.214 152H245.362C249.566 152 252.974 155.408 252.974 159.612V203.761C252.974 205.862 251.27 207.566 249.168 207.566Z" fill="#606060"/>
<path d="M46.8952 399.62V395.408H55.3452V392.132H46.8952V388.18H56.4632V384.8H42.7092V403H56.8012V399.62H46.8952ZM68.3686 388.804C66.4706 388.804 64.8326 389.454 63.7406 390.65V389.012H59.8666V403H63.9226V396.084C63.9226 393.51 65.3266 392.314 67.2766 392.314C69.0706 392.314 70.1106 393.354 70.1106 395.616V403H74.1666V394.992C74.1666 390.728 71.6706 388.804 68.3686 388.804ZM88.3175 389.012V390.624C87.3035 389.402 85.8215 388.804 83.9495 388.804C79.9975 388.804 76.9555 391.612 76.9555 396.006C76.9555 400.4 79.9975 403.208 83.9495 403.208C85.6655 403.208 87.1215 402.662 88.1355 401.518V408.044H92.1915V389.012H88.3175ZM84.6515 399.88C82.6235 399.88 81.0635 398.424 81.0635 396.006C81.0635 393.588 82.6235 392.132 84.6515 392.132C86.6535 392.132 88.2135 393.588 88.2135 396.006C88.2135 398.424 86.6535 399.88 84.6515 399.88ZM105.983 389.012V395.928C105.983 398.502 104.631 399.698 102.759 399.698C100.965 399.698 99.9246 398.658 99.9246 396.318V389.012H95.8686V396.916C95.8686 401.232 98.3386 403.208 101.849 403.208C103.565 403.208 105.125 402.558 106.191 401.336V403H110.039V389.012H105.983ZM119.438 388.804C117.202 388.804 114.94 389.402 113.406 390.494L114.862 393.328C115.876 392.522 117.41 392.028 118.892 392.028C121.076 392.028 122.116 393.042 122.116 394.784H118.892C114.628 394.784 112.886 396.5 112.886 398.97C112.886 401.388 114.836 403.208 118.112 403.208C120.166 403.208 121.622 402.532 122.376 401.258V403H126.172V395.018C126.172 390.78 123.702 388.804 119.438 388.804ZM119.126 400.478C117.696 400.478 116.838 399.802 116.838 398.788C116.838 397.852 117.436 397.15 119.334 397.15H122.116V398.58C121.648 399.854 120.478 400.478 119.126 400.478ZM140.187 383.708V390.494C139.173 389.35 137.717 388.804 136.001 388.804C132.049 388.804 129.007 391.612 129.007 396.006C129.007 400.4 132.049 403.208 136.001 403.208C137.873 403.208 139.355 402.61 140.369 401.388V403H144.243V383.708H140.187ZM136.703 399.88C134.675 399.88 133.115 398.424 133.115 396.006C133.115 393.588 134.675 392.132 136.703 392.132C138.705 392.132 140.265 393.588 140.265 396.006C140.265 398.424 138.705 399.88 136.703 399.88ZM151.871 390.858V389.012H147.997V403H152.053V396.396C152.053 393.718 153.535 392.496 155.771 392.496C156.083 392.496 156.343 392.522 156.681 392.548V388.804C154.523 388.804 152.859 389.506 151.871 390.858ZM172.668 396.058C172.668 391.56 169.496 388.804 165.388 388.804C161.124 388.804 157.926 391.82 157.926 396.006C157.926 400.166 161.072 403.208 165.908 403.208C168.43 403.208 170.38 402.428 171.68 400.946L169.522 398.606C168.56 399.516 167.494 399.958 166.012 399.958C163.88 399.958 162.398 398.892 162.008 397.15H172.59C172.616 396.812 172.668 396.37 172.668 396.058ZM165.414 391.872C167.234 391.872 168.56 393.016 168.846 394.784H161.956C162.242 392.99 163.568 391.872 165.414 391.872ZM191 388.804C189.258 388.804 187.828 389.35 186.788 390.494V383.708H182.732V403H186.606V401.388C187.62 402.61 189.128 403.208 191 403.208C194.926 403.208 197.968 400.4 197.968 396.006C197.968 391.612 194.926 388.804 191 388.804ZM190.298 399.88C188.27 399.88 186.736 398.424 186.736 396.006C186.736 393.588 188.27 392.132 190.298 392.132C192.326 392.132 193.86 393.588 193.86 396.006C193.86 398.424 192.326 399.88 190.298 399.88ZM214.385 396.058C214.385 391.56 211.213 388.804 207.105 388.804C202.841 388.804 199.643 391.82 199.643 396.006C199.643 400.166 202.789 403.208 207.625 403.208C210.147 403.208 212.097 402.428 213.397 400.946L211.239 398.606C210.277 399.516 209.211 399.958 207.729 399.958C205.597 399.958 204.115 398.892 203.725 397.15H214.307C214.333 396.812 214.385 396.37 214.385 396.058ZM207.131 391.872C208.951 391.872 210.277 393.016 210.563 394.784H203.673C203.959 392.99 205.285 391.872 207.131 391.872ZM234.999 388.804C232.893 388.804 231.073 389.662 229.955 391.092C228.967 389.558 227.303 388.804 225.353 388.804C223.559 388.804 221.999 389.428 220.959 390.624V389.012H217.085V403H221.141V395.98C221.141 393.484 222.415 392.314 224.209 392.314C225.899 392.314 226.861 393.354 226.861 395.616V403H230.917V395.98C230.917 393.484 232.191 392.314 234.011 392.314C235.649 392.314 236.663 393.354 236.663 395.616V403H240.719V394.992C240.719 390.728 238.327 388.804 234.999 388.804ZM258.374 403.208C262.82 403.208 266.044 400.218 266.044 396.006C266.044 391.794 262.82 388.804 258.374 388.804C253.928 388.804 250.678 391.794 250.678 396.006C250.678 400.218 253.928 403.208 258.374 403.208ZM258.374 399.88C256.346 399.88 254.786 398.424 254.786 396.006C254.786 393.588 256.346 392.132 258.374 392.132C260.402 392.132 261.936 393.588 261.936 396.006C261.936 398.424 260.402 399.88 258.374 399.88ZM280.825 403.208C285.011 403.208 287.429 401.362 287.429 398.762C287.429 393.25 278.979 395.564 278.979 393.172C278.979 392.444 279.759 391.872 281.579 391.872C282.853 391.872 284.231 392.132 285.609 392.912L286.961 390.026C285.635 389.246 283.503 388.804 281.579 388.804C277.497 388.804 275.105 390.676 275.105 393.328C275.105 398.918 283.555 396.578 283.555 398.866C283.555 399.646 282.853 400.14 280.981 400.14C279.265 400.14 277.367 399.594 276.119 398.788L274.767 401.7C276.067 402.558 278.459 403.208 280.825 403.208ZM303.633 396.058C303.633 391.56 300.461 388.804 296.353 388.804C292.089 388.804 288.891 391.82 288.891 396.006C288.891 400.166 292.037 403.208 296.873 403.208C299.395 403.208 301.345 402.428 302.645 400.946L300.487 398.606C299.525 399.516 298.459 399.958 296.977 399.958C294.845 399.958 293.363 398.892 292.973 397.15H303.555C303.581 396.812 303.633 396.37 303.633 396.058ZM296.379 391.872C298.199 391.872 299.525 393.016 299.811 394.784H292.921C293.207 392.99 294.533 391.872 296.379 391.872ZM316.369 389.012V395.928C316.369 398.502 315.017 399.698 313.145 399.698C311.351 399.698 310.311 398.658 310.311 396.318V389.012H306.255V396.916C306.255 401.232 308.725 403.208 312.235 403.208C313.951 403.208 315.511 402.558 316.577 401.336V403H320.425V389.012H316.369ZM152.316 422.858V421.012H148.442V435H152.498V428.396C152.498 425.718 153.98 424.496 156.216 424.496C156.528 424.496 156.788 424.522 157.126 424.548V420.804C154.968 420.804 153.304 421.506 152.316 422.858ZM166.066 435.208C170.512 435.208 173.736 432.218 173.736 428.006C173.736 423.794 170.512 420.804 166.066 420.804C161.62 420.804 158.37 423.794 158.37 428.006C158.37 432.218 161.62 435.208 166.066 435.208ZM166.066 431.88C164.038 431.88 162.478 430.424 162.478 428.006C162.478 425.588 164.038 424.132 166.066 424.132C168.094 424.132 169.628 425.588 169.628 428.006C169.628 430.424 168.094 431.88 166.066 431.88ZM181.154 435.208C185.34 435.208 187.758 433.362 187.758 430.762C187.758 425.25 179.308 427.564 179.308 425.172C179.308 424.444 180.088 423.872 181.908 423.872C183.182 423.872 184.56 424.132 185.938 424.912L187.29 422.026C185.964 421.246 183.832 420.804 181.908 420.804C177.826 420.804 175.434 422.676 175.434 425.328C175.434 430.918 183.884 428.578 183.884 430.866C183.884 431.646 183.182 432.14 181.31 432.14C179.594 432.14 177.696 431.594 176.448 430.788L175.096 433.7C176.396 434.558 178.788 435.208 181.154 435.208ZM198.19 431.464C197.748 431.802 197.15 431.984 196.552 431.984C195.46 431.984 194.81 431.334 194.81 430.138V424.444H198.294V421.324H194.81V417.918H190.754V421.324H188.596V424.444H190.754V430.19C190.754 433.518 192.678 435.208 195.98 435.208C197.228 435.208 198.45 434.922 199.282 434.324L198.19 431.464ZM207.783 435.208C212.229 435.208 215.453 432.218 215.453 428.006C215.453 423.794 212.229 420.804 207.783 420.804C203.337 420.804 200.087 423.794 200.087 428.006C200.087 432.218 203.337 435.208 207.783 435.208ZM207.783 431.88C205.755 431.88 204.195 430.424 204.195 428.006C204.195 425.588 205.755 424.132 207.783 424.132C209.811 424.132 211.345 425.588 211.345 428.006C211.345 430.424 209.811 431.88 207.783 431.88Z" fill="#606060"/>
<path d="M120.269 55.74V53.4H110.747V66H113.663V61.41H119.495V59.07H113.663V55.74H120.269ZM123.273 54.966C124.317 54.966 125.019 54.282 125.019 53.346C125.019 52.482 124.317 51.834 123.273 51.834C122.229 51.834 121.527 52.518 121.527 53.4C121.527 54.282 122.229 54.966 123.273 54.966ZM121.869 66H124.677V56.316H121.869V66ZM134.429 56.316V57.432C133.727 56.586 132.701 56.172 131.405 56.172C128.669 56.172 126.563 58.116 126.563 61.158C126.563 64.2 128.669 66.144 131.405 66.144C132.593 66.144 133.601 65.766 134.303 64.974V69.492H137.111V56.316H134.429ZM131.891 63.84C130.487 63.84 129.407 62.832 129.407 61.158C129.407 59.484 130.487 58.476 131.891 58.476C133.277 58.476 134.357 59.484 134.357 61.158C134.357 62.832 133.277 63.84 131.891 63.84ZM146.659 56.316V61.104C146.659 62.886 145.723 63.714 144.427 63.714C143.185 63.714 142.465 62.994 142.465 61.374V56.316H139.657V61.788C139.657 64.776 141.367 66.144 143.797 66.144C144.985 66.144 146.065 65.694 146.803 64.848V66H149.467V56.316H146.659ZM161.554 61.194C161.554 58.08 159.358 56.172 156.514 56.172C153.562 56.172 151.348 58.26 151.348 61.158C151.348 64.038 153.526 66.144 156.874 66.144C158.62 66.144 159.97 65.604 160.87 64.578L159.376 62.958C158.71 63.588 157.972 63.894 156.946 63.894C155.47 63.894 154.444 63.156 154.174 61.95H161.5C161.518 61.716 161.554 61.41 161.554 61.194ZM156.532 58.296C157.792 58.296 158.71 59.088 158.908 60.312H154.138C154.336 59.07 155.254 58.296 156.532 58.296ZM172.428 56.172C170.88 56.172 169.314 56.586 168.252 57.342L169.26 59.304C169.962 58.746 171.024 58.404 172.05 58.404C173.562 58.404 174.282 59.106 174.282 60.312H172.05C169.098 60.312 167.892 61.5 167.892 63.21C167.892 64.884 169.242 66.144 171.51 66.144C172.932 66.144 173.94 65.676 174.462 64.794V66H177.09V60.474C177.09 57.54 175.38 56.172 172.428 56.172ZM172.212 64.254C171.222 64.254 170.628 63.786 170.628 63.084C170.628 62.436 171.042 61.95 172.356 61.95H174.282V62.94C173.958 63.822 173.148 64.254 172.212 64.254ZM185.121 63.552C184.815 63.786 184.401 63.912 183.987 63.912C183.231 63.912 182.781 63.462 182.781 62.634V58.692H185.193V56.532H182.781V54.174H179.973V56.532H178.479V58.692H179.973V62.67C179.973 64.974 181.305 66.144 183.591 66.144C184.455 66.144 185.301 65.946 185.877 65.532L185.121 63.552ZM196.64 61.194C196.64 58.08 194.444 56.172 191.6 56.172C188.648 56.172 186.434 58.26 186.434 61.158C186.434 64.038 188.612 66.144 191.96 66.144C193.706 66.144 195.056 65.604 195.956 64.578L194.462 62.958C193.796 63.588 193.058 63.894 192.032 63.894C190.556 63.894 189.53 63.156 189.26 61.95H196.586C196.604 61.716 196.64 61.41 196.64 61.194ZM191.618 58.296C192.878 58.296 193.796 59.088 193.994 60.312H189.224C189.422 59.07 190.34 58.296 191.618 58.296ZM204.396 56.172C203.082 56.172 201.948 56.622 201.192 57.45V56.316H198.51V66H201.318V61.212C201.318 59.43 202.29 58.602 203.64 58.602C204.882 58.602 205.602 59.322 205.602 60.888V66H208.41V60.456C208.41 57.504 206.682 56.172 204.396 56.172ZM216.445 63.552C216.139 63.786 215.725 63.912 215.311 63.912C214.555 63.912 214.105 63.462 214.105 62.634V58.692H216.517V56.532H214.105V54.174H211.297V56.532H209.803V58.692H211.297V62.67C211.297 64.974 212.629 66.144 214.915 66.144C215.779 66.144 216.625 65.946 217.201 65.532L216.445 63.552ZM223.087 66.144C226.165 66.144 228.397 64.074 228.397 61.158C228.397 58.242 226.165 56.172 223.087 56.172C220.009 56.172 217.759 58.242 217.759 61.158C217.759 64.074 220.009 66.144 223.087 66.144ZM223.087 63.84C221.683 63.84 220.603 62.832 220.603 61.158C220.603 59.484 221.683 58.476 223.087 58.476C224.491 58.476 225.553 59.484 225.553 61.158C225.553 62.832 224.491 63.84 223.087 63.84ZM241.203 55.074L238.773 52.482H235.749L239.007 55.074H241.203ZM239.277 56.172C237.729 56.172 236.163 56.586 235.101 57.342L236.109 59.304C236.811 58.746 237.873 58.404 238.899 58.404C240.411 58.404 241.131 59.106 241.131 60.312H238.899C235.947 60.312 234.741 61.5 234.741 63.21C234.741 64.884 236.091 66.144 238.359 66.144C239.781 66.144 240.789 65.676 241.311 64.794V66H243.939V60.474C243.939 57.54 242.229 56.172 239.277 56.172ZM239.061 64.254C238.071 64.254 237.477 63.786 237.477 63.084C237.477 62.436 237.891 61.95 239.205 61.95H241.131V62.94C240.807 63.822 239.997 64.254 239.061 64.254ZM249.739 66.144C252.637 66.144 254.311 64.866 254.311 63.066C254.311 59.25 248.461 60.852 248.461 59.196C248.461 58.692 249.001 58.296 250.261 58.296C251.143 58.296 252.097 58.476 253.051 59.016L253.987 57.018C253.069 56.478 251.593 56.172 250.261 56.172C247.435 56.172 245.779 57.468 245.779 59.304C245.779 63.174 251.629 61.554 251.629 63.138C251.629 63.678 251.143 64.02 249.847 64.02C248.659 64.02 247.345 63.642 246.481 63.084L245.545 65.1C246.445 65.694 248.101 66.144 249.739 66.144ZM132.809 76.966C133.853 76.966 134.555 76.282 134.555 75.346C134.555 74.482 133.853 73.834 132.809 73.834C131.765 73.834 131.063 74.518 131.063 75.4C131.063 76.282 131.765 76.966 132.809 76.966ZM131.405 88H134.213V78.316H131.405V88ZM142.705 78.172C141.391 78.172 140.257 78.622 139.501 79.45V78.316H136.819V88H139.627V83.212C139.627 81.43 140.599 80.602 141.949 80.602C143.191 80.602 143.911 81.322 143.911 82.888V88H146.719V82.456C146.719 79.504 144.991 78.172 142.705 78.172ZM152.523 88.144C155.421 88.144 157.095 86.866 157.095 85.066C157.095 81.25 151.245 82.852 151.245 81.196C151.245 80.692 151.785 80.296 153.045 80.296C153.927 80.296 154.881 80.476 155.835 81.016L156.771 79.018C155.853 78.478 154.377 78.172 153.045 78.172C150.219 78.172 148.563 79.468 148.563 81.304C148.563 85.174 154.413 83.554 154.413 85.138C154.413 85.678 153.927 86.02 152.631 86.02C151.443 86.02 150.129 85.642 149.265 85.084L148.329 87.1C149.229 87.694 150.885 88.144 152.523 88.144ZM164.317 85.552C164.011 85.786 163.597 85.912 163.183 85.912C162.427 85.912 161.977 85.462 161.977 84.634V80.692H164.389V78.532H161.977V76.174H159.169V78.532H157.675V80.692H159.169V84.67C159.169 86.974 160.501 88.144 162.787 88.144C163.651 88.144 164.497 87.946 165.073 87.532L164.317 85.552ZM169.332 79.594V78.316H166.65V88H169.458V83.428C169.458 81.574 170.484 80.728 172.032 80.728C172.248 80.728 172.428 80.746 172.662 80.764V78.172C171.168 78.172 170.016 78.658 169.332 79.594ZM181.349 78.316V83.104C181.349 84.886 180.413 85.714 179.117 85.714C177.875 85.714 177.155 84.994 177.155 83.374V78.316H174.347V83.788C174.347 86.776 176.057 88.144 178.487 88.144C179.675 88.144 180.755 87.694 181.493 86.848V88H184.157V78.316H181.349ZM191.421 85.84C189.999 85.84 188.883 84.85 188.883 83.158C188.883 81.466 189.999 80.476 191.421 80.476C192.303 80.476 193.077 80.89 193.599 81.808L195.777 80.638C195.075 79.054 193.473 78.172 191.439 78.172C188.289 78.172 186.039 80.242 186.039 83.158C186.039 85.678 187.713 87.568 190.215 88.036L189.783 89.764H190.395C191.025 89.764 191.277 89.98 191.277 90.286C191.277 90.628 191.007 90.862 190.341 90.862C189.909 90.862 189.513 90.754 189.171 90.592L188.739 91.798C189.153 92.032 189.783 92.176 190.413 92.176C192.015 92.176 193.059 91.492 193.059 90.394C193.059 89.656 192.591 89.026 191.493 88.9L191.673 88.144C193.599 88.072 195.111 87.19 195.777 85.696L193.599 84.508C193.077 85.444 192.303 85.84 191.421 85.84ZM203.193 77.128C204.453 77.128 205.263 76.102 205.299 74.554H203.877C203.841 75.148 203.499 75.526 203.013 75.526C202.365 75.526 201.735 74.374 200.493 74.374C199.233 74.374 198.423 75.4 198.387 77.002H199.809C199.845 76.354 200.187 75.994 200.673 75.994C201.321 75.994 201.951 77.128 203.193 77.128ZM201.879 88.144C204.957 88.144 207.189 86.074 207.189 83.158C207.189 80.242 204.957 78.172 201.879 78.172C198.801 78.172 196.551 80.242 196.551 83.158C196.551 86.074 198.801 88.144 201.879 88.144ZM201.879 85.84C200.475 85.84 199.395 84.832 199.395 83.158C199.395 81.484 200.475 80.476 201.879 80.476C203.283 80.476 204.345 81.484 204.345 83.158C204.345 84.832 203.283 85.84 201.879 85.84ZM218.552 83.194C218.552 80.08 216.356 78.172 213.512 78.172C210.56 78.172 208.346 80.26 208.346 83.158C208.346 86.038 210.524 88.144 213.872 88.144C215.618 88.144 216.968 87.604 217.868 86.578L216.374 84.958C215.708 85.588 214.97 85.894 213.944 85.894C212.468 85.894 211.442 85.156 211.172 83.95H218.498C218.516 83.716 218.552 83.41 218.552 83.194ZM213.53 80.296C214.79 80.296 215.708 81.088 215.906 82.312H211.136C211.334 81.07 212.252 80.296 213.53 80.296ZM223.679 88.144C226.577 88.144 228.251 86.866 228.251 85.066C228.251 81.25 222.401 82.852 222.401 81.196C222.401 80.692 222.941 80.296 224.201 80.296C225.083 80.296 226.037 80.476 226.991 81.016L227.927 79.018C227.009 78.478 225.533 78.172 224.201 78.172C221.375 78.172 219.719 79.468 219.719 81.304C219.719 85.174 225.569 83.554 225.569 85.138C225.569 85.678 225.083 86.02 223.787 86.02C222.599 86.02 221.285 85.642 220.421 85.084L219.485 87.1C220.385 87.694 222.041 88.144 223.679 88.144ZM230.182 83.626H232.414L232.972 75.4H229.624L230.182 83.626ZM231.298 88.144C232.306 88.144 233.026 87.406 233.026 86.506C233.026 85.588 232.306 84.904 231.298 84.904C230.29 84.904 229.57 85.588 229.57 86.506C229.57 87.406 230.29 88.144 231.298 88.144Z" fill="#4B4B4B"/>
</svg>
