<svg width="364" height="566" viewBox="0 0 364 566" fill="none" xmlns="http://www.w3.org/2000/svg">
<rect width="364" height="566" rx="32" fill="white"/>
<circle cx="191" cy="479" r="5" fill="#C4C4C4"/>
<circle cx="210" cy="479" r="5" fill="#C4C4C4"/>
<circle r="5" transform="matrix(-1 0 0 1 172 479)" fill="#C4C4C4"/>
<circle r="5" transform="matrix(-1 0 0 1 153 479)" fill="#8DBBFF"/>
<rect x="57" y="505" width="250" height="40" rx="20" fill="#2E71FE"/>
<path d="M162.256 529.232V526.112H166.6V525.356H162.256V522.368H167.128V521.6H161.368V530H167.308V529.232H162.256ZM172.431 523.64C171.339 523.64 170.487 524.084 170.031 524.852V523.688H169.215V530H170.067V526.688C170.067 525.248 170.919 524.408 172.275 524.408C173.475 524.408 174.171 525.092 174.171 526.424V530H175.023V526.34C175.023 524.528 173.967 523.64 172.431 523.64ZM180.36 529.004C180.12 529.22 179.772 529.328 179.424 529.328C178.716 529.328 178.332 528.92 178.332 528.176V524.408H180.252V523.688H178.332V522.308H177.48V523.688H176.352V524.408H177.48V528.224C177.48 529.388 178.14 530.06 179.328 530.06C179.82 530.06 180.324 529.916 180.66 529.616L180.36 529.004ZM187.497 526.844C187.497 524.948 186.213 523.64 184.437 523.64C182.661 523.64 181.353 524.972 181.353 526.844C181.353 528.716 182.697 530.06 184.665 530.06C185.661 530.06 186.537 529.7 187.101 529.028L186.621 528.476C186.141 529.028 185.457 529.304 184.689 529.304C183.309 529.304 182.301 528.428 182.205 527.108H187.485C187.485 527.012 187.497 526.916 187.497 526.844ZM184.437 524.372C185.673 524.372 186.573 525.236 186.681 526.472H182.205C182.313 525.236 183.213 524.372 184.437 524.372ZM192.447 523.64C191.355 523.64 190.503 524.084 190.047 524.852V523.688H189.231V530H190.083V526.688C190.083 525.248 190.935 524.408 192.291 524.408C193.491 524.408 194.187 525.092 194.187 526.424V530H195.039V526.34C195.039 524.528 193.983 523.64 192.447 523.64ZM202.284 521.096V524.888C201.756 524.072 200.892 523.64 199.884 523.64C198.084 523.64 196.74 524.936 196.74 526.844C196.74 528.752 198.084 530.06 199.884 530.06C200.928 530.06 201.804 529.604 202.32 528.752V530H203.136V521.096H202.284ZM199.956 529.304C198.612 529.304 197.604 528.32 197.604 526.844C197.604 525.368 198.612 524.384 199.956 524.384C201.288 524.384 202.296 525.368 202.296 526.844C202.296 528.32 201.288 529.304 199.956 529.304ZM205.94 522.308C206.3 522.308 206.564 522.032 206.564 521.684C206.564 521.36 206.288 521.096 205.94 521.096C205.592 521.096 205.316 521.372 205.316 521.696C205.316 522.032 205.592 522.308 205.94 522.308ZM205.508 530H206.36V523.688H205.508V530ZM208.767 527.48H209.427L209.607 521.6H208.599L208.767 527.48ZM209.103 530.06C209.463 530.06 209.727 529.772 209.727 529.436C209.727 529.088 209.463 528.824 209.103 528.824C208.743 528.824 208.467 529.088 208.467 529.436C208.467 529.772 208.743 530.06 209.103 530.06Z" fill="white"/>
<path fill-rule="evenodd" clip-rule="evenodd" d="M222.655 168.905C230.097 169.825 237.491 171.189 244.867 172.556C249.251 173.368 249.403 173.536 249.688 177.941C249.872 180.797 250.007 183.661 250.078 186.526C249.508 186.512 248.935 186.504 248.361 186.504C244.379 186.504 240.479 186.859 236.692 187.539C236.178 185.462 235.246 183.599 233.166 182.444C229.555 180.437 225.609 178.815 221.612 177.752C212.958 175.444 204.025 175.25 195.118 175.476C186.376 175.7 177.717 176.52 169.464 179.862C163.903 182.111 161.163 185.742 161.71 191.61C162.881 204.272 167.303 215.748 174.884 225.99C177.418 229.417 180.805 231.639 184.834 232.977C185.063 233.053 185.293 233.127 185.523 233.2C185.009 234.908 184.564 236.646 184.189 238.409C177.246 236.242 171.861 232.248 168.002 225.676C162.604 216.465 159.068 206.619 156.443 196.363C155.786 193.813 155.01 191.293 154.22 188.78C153.363 186.044 151.068 186.004 148.776 186.012C146.599 186.02 144.619 186.369 143.899 188.868C143.402 190.596 142.914 192.327 142.427 194.059C141.33 197.954 140.232 201.85 139.032 205.71C136.721 213.134 133.409 220.08 129.417 226.787C125.548 233.294 119.841 236.848 112.826 238.721C100.831 241.93 88.6183 242.193 76.4693 240.222C68.8672 238.985 62.6125 234.845 59.8668 227.299C57.6135 221.101 55.7244 214.771 53.8356 208.442C53.1835 206.257 52.5314 204.072 51.8644 201.892C51.806 201.702 51.7511 201.513 51.6969 201.327C51.3021 199.97 50.9386 198.72 49.4842 197.821C48.6357 197.293 47.9766 195.732 48.0006 194.655C48.0892 190.588 48.285 186.525 48.4809 182.461C48.586 180.279 48.6912 178.096 48.7798 175.913C48.8572 174.101 49.8231 173.272 51.4935 172.99C54.1621 172.541 56.8279 172.065 59.494 171.589C65.4307 170.528 71.3692 169.468 77.3445 168.703C82.4388 168.052 87.5765 167.745 92.7134 167.439C94.9974 167.303 97.2814 167.167 99.5612 167C109.533 166.987 119.35 168.3 129.087 170.182C142.978 172.862 156.84 172.763 170.657 169.896C187.945 166.31 205.297 166.752 222.655 168.905ZM130.367 213.909C133.481 207.144 135.64 200.075 136.443 192.636C137.092 186.603 135.387 183.291 129.948 180.632C127.67 179.515 125.241 178.439 122.768 178.039C114.984 176.787 99.2597 174.261 86.8732 176.086C86.1972 176.186 85.5208 176.282 84.8447 176.379C78.9005 177.229 72.9814 178.075 67.5357 180.85C64.838 182.225 62.3484 183.955 61.6599 187.136C58.6634 200.984 59.9762 214.312 66.7618 226.918C68.7871 230.677 71.8824 233.086 76.1091 233.965C87.3082 236.305 98.4939 236.592 109.73 234.053C116.543 232.508 121.861 229.028 125.418 223.011C127.176 220.038 128.926 217.037 130.367 213.909Z" fill="#606060"/>
<rect x="217.909" y="212.267" width="98.6858" height="14.8029" rx="7.40143" transform="rotate(45 217.909 212.267)" fill="#D30D0D"/>
<rect x="286.993" y="222.733" width="98.6858" height="14.8029" rx="7.40143" transform="rotate(135 286.993 222.733)" fill="#D30D0D"/>
<path d="M93.5891 398.8V409.85L84.5411 398.8H81.0571V417H85.2171V405.95L94.2911 417H97.7491V398.8H93.5891ZM106.137 399.658C107.073 399.658 107.983 401.296 109.777 401.296C111.597 401.296 112.767 399.814 112.819 397.578H110.765C110.713 398.436 110.219 398.982 109.517 398.982C108.581 398.982 107.671 397.318 105.877 397.318C104.057 397.318 102.887 398.8 102.835 401.114H104.889C104.941 400.178 105.435 399.658 106.137 399.658ZM107.411 402.804C105.175 402.804 102.913 403.402 101.379 404.494L102.835 407.328C103.849 406.522 105.383 406.028 106.865 406.028C109.049 406.028 110.089 407.042 110.089 408.784H106.865C102.601 408.784 100.859 410.5 100.859 412.97C100.859 415.388 102.809 417.208 106.085 417.208C108.139 417.208 109.595 416.532 110.349 415.258V417H114.145V409.018C114.145 404.78 111.675 402.804 107.411 402.804ZM107.099 414.478C105.669 414.478 104.811 413.802 104.811 412.788C104.811 411.852 105.409 411.15 107.307 411.15H110.089V412.58C109.621 413.854 108.451 414.478 107.099 414.478ZM124.624 417.208C129.07 417.208 132.294 414.218 132.294 410.006C132.294 405.794 129.07 402.804 124.624 402.804C120.178 402.804 116.928 405.794 116.928 410.006C116.928 414.218 120.178 417.208 124.624 417.208ZM124.624 413.88C122.596 413.88 121.036 412.424 121.036 410.006C121.036 407.588 122.596 406.132 124.624 406.132C126.652 406.132 128.186 407.588 128.186 410.006C128.186 412.424 126.652 413.88 124.624 413.88ZM152.405 403.012V409.928C152.405 412.502 151.053 413.698 149.181 413.698C147.387 413.698 146.347 412.658 146.347 410.318V403.012H142.291V410.916C142.291 415.232 144.761 417.208 148.271 417.208C149.987 417.208 151.547 416.558 152.613 415.336V417H156.461V403.012H152.405ZM164.924 417.208C169.11 417.208 171.528 415.362 171.528 412.762C171.528 407.25 163.078 409.564 163.078 407.172C163.078 406.444 163.858 405.872 165.678 405.872C166.952 405.872 168.33 406.132 169.708 406.912L171.06 404.026C169.734 403.246 167.602 402.804 165.678 402.804C161.596 402.804 159.204 404.676 159.204 407.328C159.204 412.918 167.654 410.578 167.654 412.866C167.654 413.646 166.952 414.14 165.08 414.14C163.364 414.14 161.466 413.594 160.218 412.788L158.866 415.7C160.166 416.558 162.558 417.208 164.924 417.208ZM187.733 410.058C187.733 405.56 184.561 402.804 180.453 402.804C176.189 402.804 172.991 405.82 172.991 410.006C172.991 414.166 176.137 417.208 180.973 417.208C183.495 417.208 185.445 416.428 186.745 414.946L184.587 412.606C183.625 413.516 182.559 413.958 181.077 413.958C178.945 413.958 177.463 412.892 177.073 411.15H187.655C187.681 410.812 187.733 410.37 187.733 410.058ZM180.479 405.872C182.299 405.872 183.625 407.016 183.911 408.784H177.021C177.307 406.99 178.633 405.872 180.479 405.872ZM202.034 401.218H205.206L209.912 397.474H205.544L202.034 401.218ZM204.452 417.208C208.898 417.208 212.122 414.218 212.122 410.006C212.122 405.794 208.898 402.804 204.452 402.804C200.006 402.804 196.756 405.794 196.756 410.006C196.756 414.218 200.006 417.208 204.452 417.208ZM204.452 413.88C202.424 413.88 200.864 412.424 200.864 410.006C200.864 407.588 202.424 406.132 204.452 406.132C206.48 406.132 208.014 407.588 208.014 410.006C208.014 412.424 206.48 413.88 204.452 413.88ZM221.594 417.208C224.532 417.208 226.846 415.908 227.86 413.672L224.714 411.956C223.96 413.308 222.842 413.88 221.568 413.88C219.514 413.88 217.902 412.45 217.902 410.006C217.902 407.562 219.514 406.132 221.568 406.132C222.842 406.132 223.96 406.73 224.714 408.056L227.86 406.366C226.846 404.078 224.532 402.804 221.594 402.804C217.044 402.804 213.794 405.794 213.794 410.006C213.794 414.218 217.044 417.208 221.594 417.208ZM240.231 403.012V409.928C240.231 412.502 238.879 413.698 237.007 413.698C235.213 413.698 234.173 412.658 234.173 410.318V403.012H230.117V410.916C230.117 415.232 232.587 417.208 236.097 417.208C237.813 417.208 239.373 416.558 240.439 415.336V417H244.287V403.012H240.231ZM248.045 417H252.101V397.708H248.045V417ZM262.521 417.208C266.967 417.208 270.191 414.218 270.191 410.006C270.191 405.794 266.967 402.804 262.521 402.804C258.075 402.804 254.825 405.794 254.825 410.006C254.825 414.218 258.075 417.208 262.521 417.208ZM262.521 413.88C260.493 413.88 258.933 412.424 258.933 410.006C258.933 407.588 260.493 406.132 262.521 406.132C264.549 406.132 266.083 407.588 266.083 410.006C266.083 412.424 264.549 413.88 262.521 413.88ZM277.608 417.208C281.794 417.208 284.212 415.362 284.212 412.762C284.212 407.25 275.762 409.564 275.762 407.172C275.762 406.444 276.542 405.872 278.362 405.872C279.636 405.872 281.014 406.132 282.392 406.912L283.744 404.026C282.418 403.246 280.286 402.804 278.362 402.804C274.28 402.804 271.888 404.676 271.888 407.328C271.888 412.918 280.338 410.578 280.338 412.866C280.338 413.646 279.636 414.14 277.764 414.14C276.048 414.14 274.15 413.594 272.902 412.788L271.55 415.7C272.85 416.558 275.242 417.208 277.608 417.208Z" fill="#606060"/>
<path d="M120.269 55.74V53.4H110.747V66H113.663V61.41H119.495V59.07H113.663V55.74H120.269ZM123.273 54.966C124.317 54.966 125.019 54.282 125.019 53.346C125.019 52.482 124.317 51.834 123.273 51.834C122.229 51.834 121.527 52.518 121.527 53.4C121.527 54.282 122.229 54.966 123.273 54.966ZM121.869 66H124.677V56.316H121.869V66ZM134.429 56.316V57.432C133.727 56.586 132.701 56.172 131.405 56.172C128.669 56.172 126.563 58.116 126.563 61.158C126.563 64.2 128.669 66.144 131.405 66.144C132.593 66.144 133.601 65.766 134.303 64.974V69.492H137.111V56.316H134.429ZM131.891 63.84C130.487 63.84 129.407 62.832 129.407 61.158C129.407 59.484 130.487 58.476 131.891 58.476C133.277 58.476 134.357 59.484 134.357 61.158C134.357 62.832 133.277 63.84 131.891 63.84ZM146.659 56.316V61.104C146.659 62.886 145.723 63.714 144.427 63.714C143.185 63.714 142.465 62.994 142.465 61.374V56.316H139.657V61.788C139.657 64.776 141.367 66.144 143.797 66.144C144.985 66.144 146.065 65.694 146.803 64.848V66H149.467V56.316H146.659ZM161.554 61.194C161.554 58.08 159.358 56.172 156.514 56.172C153.562 56.172 151.348 58.26 151.348 61.158C151.348 64.038 153.526 66.144 156.874 66.144C158.62 66.144 159.97 65.604 160.87 64.578L159.376 62.958C158.71 63.588 157.972 63.894 156.946 63.894C155.47 63.894 154.444 63.156 154.174 61.95H161.5C161.518 61.716 161.554 61.41 161.554 61.194ZM156.532 58.296C157.792 58.296 158.71 59.088 158.908 60.312H154.138C154.336 59.07 155.254 58.296 156.532 58.296ZM172.428 56.172C170.88 56.172 169.314 56.586 168.252 57.342L169.26 59.304C169.962 58.746 171.024 58.404 172.05 58.404C173.562 58.404 174.282 59.106 174.282 60.312H172.05C169.098 60.312 167.892 61.5 167.892 63.21C167.892 64.884 169.242 66.144 171.51 66.144C172.932 66.144 173.94 65.676 174.462 64.794V66H177.09V60.474C177.09 57.54 175.38 56.172 172.428 56.172ZM172.212 64.254C171.222 64.254 170.628 63.786 170.628 63.084C170.628 62.436 171.042 61.95 172.356 61.95H174.282V62.94C173.958 63.822 173.148 64.254 172.212 64.254ZM185.121 63.552C184.815 63.786 184.401 63.912 183.987 63.912C183.231 63.912 182.781 63.462 182.781 62.634V58.692H185.193V56.532H182.781V54.174H179.973V56.532H178.479V58.692H179.973V62.67C179.973 64.974 181.305 66.144 183.591 66.144C184.455 66.144 185.301 65.946 185.877 65.532L185.121 63.552ZM196.64 61.194C196.64 58.08 194.444 56.172 191.6 56.172C188.648 56.172 186.434 58.26 186.434 61.158C186.434 64.038 188.612 66.144 191.96 66.144C193.706 66.144 195.056 65.604 195.956 64.578L194.462 62.958C193.796 63.588 193.058 63.894 192.032 63.894C190.556 63.894 189.53 63.156 189.26 61.95H196.586C196.604 61.716 196.64 61.41 196.64 61.194ZM191.618 58.296C192.878 58.296 193.796 59.088 193.994 60.312H189.224C189.422 59.07 190.34 58.296 191.618 58.296ZM204.396 56.172C203.082 56.172 201.948 56.622 201.192 57.45V56.316H198.51V66H201.318V61.212C201.318 59.43 202.29 58.602 203.64 58.602C204.882 58.602 205.602 59.322 205.602 60.888V66H208.41V60.456C208.41 57.504 206.682 56.172 204.396 56.172ZM216.445 63.552C216.139 63.786 215.725 63.912 215.311 63.912C214.555 63.912 214.105 63.462 214.105 62.634V58.692H216.517V56.532H214.105V54.174H211.297V56.532H209.803V58.692H211.297V62.67C211.297 64.974 212.629 66.144 214.915 66.144C215.779 66.144 216.625 65.946 217.201 65.532L216.445 63.552ZM223.087 66.144C226.165 66.144 228.397 64.074 228.397 61.158C228.397 58.242 226.165 56.172 223.087 56.172C220.009 56.172 217.759 58.242 217.759 61.158C217.759 64.074 220.009 66.144 223.087 66.144ZM223.087 63.84C221.683 63.84 220.603 62.832 220.603 61.158C220.603 59.484 221.683 58.476 223.087 58.476C224.491 58.476 225.553 59.484 225.553 61.158C225.553 62.832 224.491 63.84 223.087 63.84ZM241.203 55.074L238.773 52.482H235.749L239.007 55.074H241.203ZM239.277 56.172C237.729 56.172 236.163 56.586 235.101 57.342L236.109 59.304C236.811 58.746 237.873 58.404 238.899 58.404C240.411 58.404 241.131 59.106 241.131 60.312H238.899C235.947 60.312 234.741 61.5 234.741 63.21C234.741 64.884 236.091 66.144 238.359 66.144C239.781 66.144 240.789 65.676 241.311 64.794V66H243.939V60.474C243.939 57.54 242.229 56.172 239.277 56.172ZM239.061 64.254C238.071 64.254 237.477 63.786 237.477 63.084C237.477 62.436 237.891 61.95 239.205 61.95H241.131V62.94C240.807 63.822 239.997 64.254 239.061 64.254ZM249.739 66.144C252.637 66.144 254.311 64.866 254.311 63.066C254.311 59.25 248.461 60.852 248.461 59.196C248.461 58.692 249.001 58.296 250.261 58.296C251.143 58.296 252.097 58.476 253.051 59.016L253.987 57.018C253.069 56.478 251.593 56.172 250.261 56.172C247.435 56.172 245.779 57.468 245.779 59.304C245.779 63.174 251.629 61.554 251.629 63.138C251.629 63.678 251.143 64.02 249.847 64.02C248.659 64.02 247.345 63.642 246.481 63.084L245.545 65.1C246.445 65.694 248.101 66.144 249.739 66.144ZM132.809 76.966C133.853 76.966 134.555 76.282 134.555 75.346C134.555 74.482 133.853 73.834 132.809 73.834C131.765 73.834 131.063 74.518 131.063 75.4C131.063 76.282 131.765 76.966 132.809 76.966ZM131.405 88H134.213V78.316H131.405V88ZM142.705 78.172C141.391 78.172 140.257 78.622 139.501 79.45V78.316H136.819V88H139.627V83.212C139.627 81.43 140.599 80.602 141.949 80.602C143.191 80.602 143.911 81.322 143.911 82.888V88H146.719V82.456C146.719 79.504 144.991 78.172 142.705 78.172ZM152.523 88.144C155.421 88.144 157.095 86.866 157.095 85.066C157.095 81.25 151.245 82.852 151.245 81.196C151.245 80.692 151.785 80.296 153.045 80.296C153.927 80.296 154.881 80.476 155.835 81.016L156.771 79.018C155.853 78.478 154.377 78.172 153.045 78.172C150.219 78.172 148.563 79.468 148.563 81.304C148.563 85.174 154.413 83.554 154.413 85.138C154.413 85.678 153.927 86.02 152.631 86.02C151.443 86.02 150.129 85.642 149.265 85.084L148.329 87.1C149.229 87.694 150.885 88.144 152.523 88.144ZM164.317 85.552C164.011 85.786 163.597 85.912 163.183 85.912C162.427 85.912 161.977 85.462 161.977 84.634V80.692H164.389V78.532H161.977V76.174H159.169V78.532H157.675V80.692H159.169V84.67C159.169 86.974 160.501 88.144 162.787 88.144C163.651 88.144 164.497 87.946 165.073 87.532L164.317 85.552ZM169.332 79.594V78.316H166.65V88H169.458V83.428C169.458 81.574 170.484 80.728 172.032 80.728C172.248 80.728 172.428 80.746 172.662 80.764V78.172C171.168 78.172 170.016 78.658 169.332 79.594ZM181.349 78.316V83.104C181.349 84.886 180.413 85.714 179.117 85.714C177.875 85.714 177.155 84.994 177.155 83.374V78.316H174.347V83.788C174.347 86.776 176.057 88.144 178.487 88.144C179.675 88.144 180.755 87.694 181.493 86.848V88H184.157V78.316H181.349ZM191.421 85.84C189.999 85.84 188.883 84.85 188.883 83.158C188.883 81.466 189.999 80.476 191.421 80.476C192.303 80.476 193.077 80.89 193.599 81.808L195.777 80.638C195.075 79.054 193.473 78.172 191.439 78.172C188.289 78.172 186.039 80.242 186.039 83.158C186.039 85.678 187.713 87.568 190.215 88.036L189.783 89.764H190.395C191.025 89.764 191.277 89.98 191.277 90.286C191.277 90.628 191.007 90.862 190.341 90.862C189.909 90.862 189.513 90.754 189.171 90.592L188.739 91.798C189.153 92.032 189.783 92.176 190.413 92.176C192.015 92.176 193.059 91.492 193.059 90.394C193.059 89.656 192.591 89.026 191.493 88.9L191.673 88.144C193.599 88.072 195.111 87.19 195.777 85.696L193.599 84.508C193.077 85.444 192.303 85.84 191.421 85.84ZM203.193 77.128C204.453 77.128 205.263 76.102 205.299 74.554H203.877C203.841 75.148 203.499 75.526 203.013 75.526C202.365 75.526 201.735 74.374 200.493 74.374C199.233 74.374 198.423 75.4 198.387 77.002H199.809C199.845 76.354 200.187 75.994 200.673 75.994C201.321 75.994 201.951 77.128 203.193 77.128ZM201.879 88.144C204.957 88.144 207.189 86.074 207.189 83.158C207.189 80.242 204.957 78.172 201.879 78.172C198.801 78.172 196.551 80.242 196.551 83.158C196.551 86.074 198.801 88.144 201.879 88.144ZM201.879 85.84C200.475 85.84 199.395 84.832 199.395 83.158C199.395 81.484 200.475 80.476 201.879 80.476C203.283 80.476 204.345 81.484 204.345 83.158C204.345 84.832 203.283 85.84 201.879 85.84ZM218.552 83.194C218.552 80.08 216.356 78.172 213.512 78.172C210.56 78.172 208.346 80.26 208.346 83.158C208.346 86.038 210.524 88.144 213.872 88.144C215.618 88.144 216.968 87.604 217.868 86.578L216.374 84.958C215.708 85.588 214.97 85.894 213.944 85.894C212.468 85.894 211.442 85.156 211.172 83.95H218.498C218.516 83.716 218.552 83.41 218.552 83.194ZM213.53 80.296C214.79 80.296 215.708 81.088 215.906 82.312H211.136C211.334 81.07 212.252 80.296 213.53 80.296ZM223.679 88.144C226.577 88.144 228.251 86.866 228.251 85.066C228.251 81.25 222.401 82.852 222.401 81.196C222.401 80.692 222.941 80.296 224.201 80.296C225.083 80.296 226.037 80.476 226.991 81.016L227.927 79.018C227.009 78.478 225.533 78.172 224.201 78.172C221.375 78.172 219.719 79.468 219.719 81.304C219.719 85.174 225.569 83.554 225.569 85.138C225.569 85.678 225.083 86.02 223.787 86.02C222.599 86.02 221.285 85.642 220.421 85.084L219.485 87.1C220.385 87.694 222.041 88.144 223.679 88.144ZM230.182 83.626H232.414L232.972 75.4H229.624L230.182 83.626ZM231.298 88.144C232.306 88.144 233.026 87.406 233.026 86.506C233.026 85.588 232.306 84.904 231.298 84.904C230.29 84.904 229.57 85.588 229.57 86.506C229.57 87.406 230.29 88.144 231.298 88.144Z" fill="#4B4B4B"/>
</svg>
