<svg width="364" height="566" viewBox="0 0 364 566" fill="none" xmlns="http://www.w3.org/2000/svg">
<rect width="364" height="566" rx="32" fill="white"/>
<circle cx="191" cy="479" r="5" fill="#8DBBFF"/>
<circle cx="210" cy="479" r="5" fill="#C4C4C4"/>
<circle r="5" transform="matrix(-1 0 0 1 172 479)" fill="#C4C4C4"/>
<circle r="5" transform="matrix(-1 0 0 1 153 479)" fill="#C4C4C4"/>
<path d="M181.474 276.012C204.518 276.012 223.198 257.332 223.198 234.288C223.198 211.244 204.518 192.563 181.474 192.563C158.43 192.563 139.75 211.244 139.75 234.288C139.75 257.332 158.43 276.012 181.474 276.012Z" fill="#606060"/>
<path d="M157.424 234.288C157.424 218.337 167.629 204.777 181.865 199.762C182.996 199.364 182.737 197.683 181.538 197.681C181.517 197.681 181.495 197.681 181.474 197.681C161.256 197.681 144.866 214.07 144.866 234.288C144.866 254.507 161.256 270.896 181.474 270.896C181.495 270.896 181.517 270.896 181.538 270.896C182.737 270.894 182.996 269.213 181.865 268.815C167.629 263.8 157.424 250.241 157.424 234.288Z" fill="#606060"/>
<path d="M181.473 185.678C183.604 185.678 185.698 185.83 187.757 186.095L181.657 145L175.564 186.048C177.502 185.813 179.472 185.678 181.473 185.678Z" fill="#606060"/>
<path d="M270.762 234.472L229.715 228.38C229.95 230.318 230.085 232.287 230.085 234.289C230.085 236.42 229.933 238.514 229.667 240.573L270.762 234.472Z" fill="#606060"/>
<path d="M219.994 204.654L244.74 171.282L211.405 196.001C214.617 198.514 217.504 201.422 219.994 204.654Z" fill="#606060"/>
<path d="M151.838 195.767L118.466 171.021L143.185 204.357C145.699 201.145 148.606 198.257 151.838 195.767Z" fill="#606060"/>
<path d="M132.863 234.288C132.863 232.157 133.015 230.063 133.28 228.004L92.1851 234.104L133.233 240.196C132.998 238.258 132.863 236.29 132.863 234.288Z" fill="#606060"/>
<path d="M211.108 272.81L244.48 297.555L219.761 264.22C217.247 267.432 214.34 270.32 211.108 272.81Z" fill="#606060"/>
<path d="M142.952 263.924L118.207 297.295L151.542 272.577C148.33 270.062 145.443 267.156 142.952 263.924Z" fill="#606060"/>
<path d="M181.473 282.899C179.343 282.899 177.248 282.747 175.19 282.481L181.29 323.577L187.382 282.529C185.444 282.765 183.475 282.899 181.473 282.899Z" fill="#606060"/>
<path d="M91.1545 392.62V388.408H99.6045V385.132H91.1545V381.18H100.723V377.8H86.9685V396H101.061V392.62H91.1545ZM108.73 396.208C112.916 396.208 115.334 394.362 115.334 391.762C115.334 386.25 106.884 388.564 106.884 386.172C106.884 385.444 107.664 384.872 109.484 384.872C110.758 384.872 112.136 385.132 113.514 385.912L114.866 383.026C113.54 382.246 111.408 381.804 109.484 381.804C105.402 381.804 103.01 383.676 103.01 386.328C103.01 391.918 111.46 389.578 111.46 391.866C111.46 392.646 110.758 393.14 108.886 393.14C107.17 393.14 105.272 392.594 104.024 391.788L102.672 394.7C103.972 395.558 106.364 396.208 108.73 396.208ZM125.767 392.464C125.325 392.802 124.727 392.984 124.129 392.984C123.037 392.984 122.387 392.334 122.387 391.138V385.444H125.871V382.324H122.387V378.918H118.331V382.324H116.173V385.444H118.331V391.19C118.331 394.518 120.255 396.208 123.557 396.208C124.805 396.208 126.027 395.922 126.859 395.324L125.767 392.464ZM142.406 389.058C142.406 384.56 139.234 381.804 135.126 381.804C130.862 381.804 127.664 384.82 127.664 389.006C127.664 393.166 130.81 396.208 135.646 396.208C138.168 396.208 140.118 395.428 141.418 393.946L139.26 391.606C138.298 392.516 137.232 392.958 135.75 392.958C133.618 392.958 132.136 391.892 131.746 390.15H142.328C142.354 389.812 142.406 389.37 142.406 389.058ZM135.152 384.872C136.972 384.872 138.298 386.016 138.584 387.784H131.694C131.98 385.99 133.306 384.872 135.152 384.872ZM147.316 380.062C148.824 380.062 149.838 379.074 149.838 377.722C149.838 376.474 148.824 375.538 147.316 375.538C145.808 375.538 144.794 376.526 144.794 377.8C144.794 379.074 145.808 380.062 147.316 380.062ZM144.066 401.252C147.446 401.252 149.344 399.198 149.344 395.974V382.012H145.288V396C145.288 397.378 144.638 398.028 143.624 398.028C142.948 398.028 142.35 397.846 141.908 397.534L140.816 400.472C141.596 401.018 142.818 401.252 144.066 401.252ZM158.721 381.804C156.485 381.804 154.223 382.402 152.689 383.494L154.145 386.328C155.159 385.522 156.693 385.028 158.175 385.028C160.359 385.028 161.399 386.042 161.399 387.784H158.175C153.911 387.784 152.169 389.5 152.169 391.97C152.169 394.388 154.119 396.208 157.395 396.208C159.449 396.208 160.905 395.532 161.659 394.258V396H165.455V388.018C165.455 383.78 162.985 381.804 158.721 381.804ZM158.409 393.478C156.979 393.478 156.121 392.802 156.121 391.788C156.121 390.852 156.719 390.15 158.617 390.15H161.399V391.58C160.931 392.854 159.761 393.478 158.409 393.478ZM190.191 389.058C190.191 384.56 187.019 381.804 182.911 381.804C178.647 381.804 175.449 384.82 175.449 389.006C175.449 393.166 178.595 396.208 183.431 396.208C185.953 396.208 187.903 395.428 189.203 393.946L187.045 391.606C186.083 392.516 185.017 392.958 183.535 392.958C181.403 392.958 179.921 391.892 179.531 390.15H190.113C190.139 389.812 190.191 389.37 190.191 389.058ZM182.937 384.872C184.757 384.872 186.083 386.016 186.369 387.784H179.479C179.765 385.99 181.091 384.872 182.937 384.872ZM210.806 381.804C208.7 381.804 206.88 382.662 205.762 384.092C204.774 382.558 203.11 381.804 201.16 381.804C199.366 381.804 197.806 382.428 196.766 383.624V382.012H192.892V396H196.948V388.98C196.948 386.484 198.222 385.314 200.016 385.314C201.706 385.314 202.668 386.354 202.668 388.616V396H206.724V388.98C206.724 386.484 207.998 385.314 209.818 385.314C211.456 385.314 212.47 386.354 212.47 388.616V396H216.526V387.992C216.526 383.728 214.134 381.804 210.806 381.804ZM237.56 382.012V388.928C237.56 391.502 236.208 392.698 234.336 392.698C232.542 392.698 231.502 391.658 231.502 389.318V382.012H227.446V389.916C227.446 394.232 229.916 396.208 233.426 396.208C235.142 396.208 236.702 395.558 237.768 394.336V396H241.616V382.012H237.56ZM263.288 381.804C261.182 381.804 259.362 382.662 258.244 384.092C257.256 382.558 255.592 381.804 253.642 381.804C251.848 381.804 250.288 382.428 249.248 383.624V382.012H245.374V396H249.43V388.98C249.43 386.484 250.704 385.314 252.498 385.314C254.188 385.314 255.15 386.354 255.15 388.616V396H259.206V388.98C259.206 386.484 260.48 385.314 262.3 385.314C263.938 385.314 264.952 386.354 264.952 388.616V396H269.008V387.992C269.008 383.728 266.616 381.804 263.288 381.804ZM78.7226 428H82.7786V408.708H78.7226V428ZM93.1989 428.208C97.6449 428.208 100.869 425.218 100.869 421.006C100.869 416.794 97.6449 413.804 93.1989 413.804C88.7529 413.804 85.5029 416.794 85.5029 421.006C85.5029 425.218 88.7529 428.208 93.1989 428.208ZM93.1989 424.88C91.1709 424.88 89.6109 423.424 89.6109 421.006C89.6109 418.588 91.1709 417.132 93.1989 417.132C95.2269 417.132 96.7609 418.588 96.7609 421.006C96.7609 423.424 95.2269 424.88 93.1989 424.88ZM110.34 428.208C113.278 428.208 115.592 426.908 116.606 424.672L113.46 422.956C112.706 424.308 111.588 424.88 110.314 424.88C108.26 424.88 106.648 423.45 106.648 421.006C106.648 418.562 108.26 417.132 110.314 417.132C111.588 417.132 112.706 417.73 113.46 419.056L116.606 417.366C115.592 415.078 113.278 413.804 110.34 413.804C105.79 413.804 102.54 416.794 102.54 421.006C102.54 425.218 105.79 428.208 110.34 428.208ZM124.583 413.804C122.347 413.804 120.085 414.402 118.551 415.494L120.007 418.328C121.021 417.522 122.555 417.028 124.037 417.028C126.221 417.028 127.261 418.042 127.261 419.784H124.037C119.773 419.784 118.031 421.5 118.031 423.97C118.031 426.388 119.981 428.208 123.257 428.208C125.311 428.208 126.767 427.532 127.521 426.258V428H131.317V420.018C131.317 415.78 128.847 413.804 124.583 413.804ZM124.271 425.478C122.841 425.478 121.983 424.802 121.983 423.788C121.983 422.852 122.581 422.15 124.479 422.15H127.261V423.58C126.793 424.854 125.623 425.478 124.271 425.478ZM134.988 428H139.044V408.708H134.988V428ZM152.2 412.062C153.708 412.062 154.722 411.074 154.722 409.722C154.722 408.474 153.708 407.538 152.2 407.538C150.692 407.538 149.678 408.526 149.678 409.8C149.678 411.074 150.692 412.062 152.2 412.062ZM150.172 428H154.228V414.012H150.172V428ZM157.992 428H162.048V408.708H157.992V428ZM175.848 414.012V420.928C175.848 423.502 174.496 424.698 172.624 424.698C170.83 424.698 169.79 423.658 169.79 421.318V414.012H165.734V421.916C165.734 426.232 168.204 428.208 171.714 428.208C173.43 428.208 174.99 427.558 176.056 426.336V428H179.904V414.012H175.848ZM201.576 413.804C199.47 413.804 197.65 414.662 196.532 416.092C195.544 414.558 193.88 413.804 191.93 413.804C190.136 413.804 188.576 414.428 187.536 415.624V414.012H183.662V428H187.718V420.98C187.718 418.484 188.992 417.314 190.786 417.314C192.476 417.314 193.438 418.354 193.438 420.616V428H197.494V420.98C197.494 418.484 198.768 417.314 200.588 417.314C202.226 417.314 203.24 418.354 203.24 420.616V428H207.296V419.992C207.296 415.728 204.904 413.804 201.576 413.804ZM212.96 412.062C214.468 412.062 215.482 411.074 215.482 409.722C215.482 408.474 214.468 407.538 212.96 407.538C211.452 407.538 210.438 408.526 210.438 409.8C210.438 411.074 211.452 412.062 212.96 412.062ZM210.932 428H214.988V414.012H210.932V428ZM227.254 413.804C225.356 413.804 223.718 414.454 222.626 415.65V414.012H218.752V428H222.808V421.084C222.808 418.51 224.212 417.314 226.162 417.314C227.956 417.314 228.996 418.354 228.996 420.616V428H233.052V419.992C233.052 415.728 230.556 413.804 227.254 413.804ZM242.37 413.804C240.134 413.804 237.872 414.402 236.338 415.494L237.794 418.328C238.808 417.522 240.342 417.028 241.824 417.028C244.008 417.028 245.048 418.042 245.048 419.784H241.824C237.56 419.784 235.818 421.5 235.818 423.97C235.818 426.388 237.768 428.208 241.044 428.208C243.098 428.208 244.554 427.532 245.308 426.258V428H249.104V420.018C249.104 415.78 246.634 413.804 242.37 413.804ZM242.058 425.478C240.628 425.478 239.77 424.802 239.77 423.788C239.77 422.852 240.368 422.15 242.266 422.15H245.048V423.58C244.58 424.854 243.41 425.478 242.058 425.478ZM263.12 408.708V415.494C262.106 414.35 260.65 413.804 258.934 413.804C254.982 413.804 251.94 416.612 251.94 421.006C251.94 425.4 254.982 428.208 258.934 428.208C260.806 428.208 262.288 427.61 263.302 426.388V428H267.176V408.708H263.12ZM259.636 424.88C257.608 424.88 256.048 423.424 256.048 421.006C256.048 418.588 257.608 417.132 259.636 417.132C261.638 417.132 263.198 418.588 263.198 421.006C263.198 423.424 261.638 424.88 259.636 424.88ZM277.586 428.208C282.032 428.208 285.256 425.218 285.256 421.006C285.256 416.794 282.032 413.804 277.586 413.804C273.14 413.804 269.89 416.794 269.89 421.006C269.89 425.218 273.14 428.208 277.586 428.208ZM277.586 424.88C275.558 424.88 273.998 423.424 273.998 421.006C273.998 418.588 275.558 417.132 277.586 417.132C279.614 417.132 281.148 418.588 281.148 421.006C281.148 423.424 279.614 424.88 277.586 424.88Z" fill="#606060"/>
<path d="M120.269 55.74V53.4H110.747V66H113.663V61.41H119.495V59.07H113.663V55.74H120.269ZM123.273 54.966C124.317 54.966 125.019 54.282 125.019 53.346C125.019 52.482 124.317 51.834 123.273 51.834C122.229 51.834 121.527 52.518 121.527 53.4C121.527 54.282 122.229 54.966 123.273 54.966ZM121.869 66H124.677V56.316H121.869V66ZM134.429 56.316V57.432C133.727 56.586 132.701 56.172 131.405 56.172C128.669 56.172 126.563 58.116 126.563 61.158C126.563 64.2 128.669 66.144 131.405 66.144C132.593 66.144 133.601 65.766 134.303 64.974V69.492H137.111V56.316H134.429ZM131.891 63.84C130.487 63.84 129.407 62.832 129.407 61.158C129.407 59.484 130.487 58.476 131.891 58.476C133.277 58.476 134.357 59.484 134.357 61.158C134.357 62.832 133.277 63.84 131.891 63.84ZM146.659 56.316V61.104C146.659 62.886 145.723 63.714 144.427 63.714C143.185 63.714 142.465 62.994 142.465 61.374V56.316H139.657V61.788C139.657 64.776 141.367 66.144 143.797 66.144C144.985 66.144 146.065 65.694 146.803 64.848V66H149.467V56.316H146.659ZM161.554 61.194C161.554 58.08 159.358 56.172 156.514 56.172C153.562 56.172 151.348 58.26 151.348 61.158C151.348 64.038 153.526 66.144 156.874 66.144C158.62 66.144 159.97 65.604 160.87 64.578L159.376 62.958C158.71 63.588 157.972 63.894 156.946 63.894C155.47 63.894 154.444 63.156 154.174 61.95H161.5C161.518 61.716 161.554 61.41 161.554 61.194ZM156.532 58.296C157.792 58.296 158.71 59.088 158.908 60.312H154.138C154.336 59.07 155.254 58.296 156.532 58.296ZM172.428 56.172C170.88 56.172 169.314 56.586 168.252 57.342L169.26 59.304C169.962 58.746 171.024 58.404 172.05 58.404C173.562 58.404 174.282 59.106 174.282 60.312H172.05C169.098 60.312 167.892 61.5 167.892 63.21C167.892 64.884 169.242 66.144 171.51 66.144C172.932 66.144 173.94 65.676 174.462 64.794V66H177.09V60.474C177.09 57.54 175.38 56.172 172.428 56.172ZM172.212 64.254C171.222 64.254 170.628 63.786 170.628 63.084C170.628 62.436 171.042 61.95 172.356 61.95H174.282V62.94C173.958 63.822 173.148 64.254 172.212 64.254ZM185.121 63.552C184.815 63.786 184.401 63.912 183.987 63.912C183.231 63.912 182.781 63.462 182.781 62.634V58.692H185.193V56.532H182.781V54.174H179.973V56.532H178.479V58.692H179.973V62.67C179.973 64.974 181.305 66.144 183.591 66.144C184.455 66.144 185.301 65.946 185.877 65.532L185.121 63.552ZM196.64 61.194C196.64 58.08 194.444 56.172 191.6 56.172C188.648 56.172 186.434 58.26 186.434 61.158C186.434 64.038 188.612 66.144 191.96 66.144C193.706 66.144 195.056 65.604 195.956 64.578L194.462 62.958C193.796 63.588 193.058 63.894 192.032 63.894C190.556 63.894 189.53 63.156 189.26 61.95H196.586C196.604 61.716 196.64 61.41 196.64 61.194ZM191.618 58.296C192.878 58.296 193.796 59.088 193.994 60.312H189.224C189.422 59.07 190.34 58.296 191.618 58.296ZM204.396 56.172C203.082 56.172 201.948 56.622 201.192 57.45V56.316H198.51V66H201.318V61.212C201.318 59.43 202.29 58.602 203.64 58.602C204.882 58.602 205.602 59.322 205.602 60.888V66H208.41V60.456C208.41 57.504 206.682 56.172 204.396 56.172ZM216.445 63.552C216.139 63.786 215.725 63.912 215.311 63.912C214.555 63.912 214.105 63.462 214.105 62.634V58.692H216.517V56.532H214.105V54.174H211.297V56.532H209.803V58.692H211.297V62.67C211.297 64.974 212.629 66.144 214.915 66.144C215.779 66.144 216.625 65.946 217.201 65.532L216.445 63.552ZM223.087 66.144C226.165 66.144 228.397 64.074 228.397 61.158C228.397 58.242 226.165 56.172 223.087 56.172C220.009 56.172 217.759 58.242 217.759 61.158C217.759 64.074 220.009 66.144 223.087 66.144ZM223.087 63.84C221.683 63.84 220.603 62.832 220.603 61.158C220.603 59.484 221.683 58.476 223.087 58.476C224.491 58.476 225.553 59.484 225.553 61.158C225.553 62.832 224.491 63.84 223.087 63.84ZM241.203 55.074L238.773 52.482H235.749L239.007 55.074H241.203ZM239.277 56.172C237.729 56.172 236.163 56.586 235.101 57.342L236.109 59.304C236.811 58.746 237.873 58.404 238.899 58.404C240.411 58.404 241.131 59.106 241.131 60.312H238.899C235.947 60.312 234.741 61.5 234.741 63.21C234.741 64.884 236.091 66.144 238.359 66.144C239.781 66.144 240.789 65.676 241.311 64.794V66H243.939V60.474C243.939 57.54 242.229 56.172 239.277 56.172ZM239.061 64.254C238.071 64.254 237.477 63.786 237.477 63.084C237.477 62.436 237.891 61.95 239.205 61.95H241.131V62.94C240.807 63.822 239.997 64.254 239.061 64.254ZM249.739 66.144C252.637 66.144 254.311 64.866 254.311 63.066C254.311 59.25 248.461 60.852 248.461 59.196C248.461 58.692 249.001 58.296 250.261 58.296C251.143 58.296 252.097 58.476 253.051 59.016L253.987 57.018C253.069 56.478 251.593 56.172 250.261 56.172C247.435 56.172 245.779 57.468 245.779 59.304C245.779 63.174 251.629 61.554 251.629 63.138C251.629 63.678 251.143 64.02 249.847 64.02C248.659 64.02 247.345 63.642 246.481 63.084L245.545 65.1C246.445 65.694 248.101 66.144 249.739 66.144ZM132.809 76.966C133.853 76.966 134.555 76.282 134.555 75.346C134.555 74.482 133.853 73.834 132.809 73.834C131.765 73.834 131.063 74.518 131.063 75.4C131.063 76.282 131.765 76.966 132.809 76.966ZM131.405 88H134.213V78.316H131.405V88ZM142.705 78.172C141.391 78.172 140.257 78.622 139.501 79.45V78.316H136.819V88H139.627V83.212C139.627 81.43 140.599 80.602 141.949 80.602C143.191 80.602 143.911 81.322 143.911 82.888V88H146.719V82.456C146.719 79.504 144.991 78.172 142.705 78.172ZM152.523 88.144C155.421 88.144 157.095 86.866 157.095 85.066C157.095 81.25 151.245 82.852 151.245 81.196C151.245 80.692 151.785 80.296 153.045 80.296C153.927 80.296 154.881 80.476 155.835 81.016L156.771 79.018C155.853 78.478 154.377 78.172 153.045 78.172C150.219 78.172 148.563 79.468 148.563 81.304C148.563 85.174 154.413 83.554 154.413 85.138C154.413 85.678 153.927 86.02 152.631 86.02C151.443 86.02 150.129 85.642 149.265 85.084L148.329 87.1C149.229 87.694 150.885 88.144 152.523 88.144ZM164.317 85.552C164.011 85.786 163.597 85.912 163.183 85.912C162.427 85.912 161.977 85.462 161.977 84.634V80.692H164.389V78.532H161.977V76.174H159.169V78.532H157.675V80.692H159.169V84.67C159.169 86.974 160.501 88.144 162.787 88.144C163.651 88.144 164.497 87.946 165.073 87.532L164.317 85.552ZM169.332 79.594V78.316H166.65V88H169.458V83.428C169.458 81.574 170.484 80.728 172.032 80.728C172.248 80.728 172.428 80.746 172.662 80.764V78.172C171.168 78.172 170.016 78.658 169.332 79.594ZM181.349 78.316V83.104C181.349 84.886 180.413 85.714 179.117 85.714C177.875 85.714 177.155 84.994 177.155 83.374V78.316H174.347V83.788C174.347 86.776 176.057 88.144 178.487 88.144C179.675 88.144 180.755 87.694 181.493 86.848V88H184.157V78.316H181.349ZM191.421 85.84C189.999 85.84 188.883 84.85 188.883 83.158C188.883 81.466 189.999 80.476 191.421 80.476C192.303 80.476 193.077 80.89 193.599 81.808L195.777 80.638C195.075 79.054 193.473 78.172 191.439 78.172C188.289 78.172 186.039 80.242 186.039 83.158C186.039 85.678 187.713 87.568 190.215 88.036L189.783 89.764H190.395C191.025 89.764 191.277 89.98 191.277 90.286C191.277 90.628 191.007 90.862 190.341 90.862C189.909 90.862 189.513 90.754 189.171 90.592L188.739 91.798C189.153 92.032 189.783 92.176 190.413 92.176C192.015 92.176 193.059 91.492 193.059 90.394C193.059 89.656 192.591 89.026 191.493 88.9L191.673 88.144C193.599 88.072 195.111 87.19 195.777 85.696L193.599 84.508C193.077 85.444 192.303 85.84 191.421 85.84ZM203.193 77.128C204.453 77.128 205.263 76.102 205.299 74.554H203.877C203.841 75.148 203.499 75.526 203.013 75.526C202.365 75.526 201.735 74.374 200.493 74.374C199.233 74.374 198.423 75.4 198.387 77.002H199.809C199.845 76.354 200.187 75.994 200.673 75.994C201.321 75.994 201.951 77.128 203.193 77.128ZM201.879 88.144C204.957 88.144 207.189 86.074 207.189 83.158C207.189 80.242 204.957 78.172 201.879 78.172C198.801 78.172 196.551 80.242 196.551 83.158C196.551 86.074 198.801 88.144 201.879 88.144ZM201.879 85.84C200.475 85.84 199.395 84.832 199.395 83.158C199.395 81.484 200.475 80.476 201.879 80.476C203.283 80.476 204.345 81.484 204.345 83.158C204.345 84.832 203.283 85.84 201.879 85.84ZM218.552 83.194C218.552 80.08 216.356 78.172 213.512 78.172C210.56 78.172 208.346 80.26 208.346 83.158C208.346 86.038 210.524 88.144 213.872 88.144C215.618 88.144 216.968 87.604 217.868 86.578L216.374 84.958C215.708 85.588 214.97 85.894 213.944 85.894C212.468 85.894 211.442 85.156 211.172 83.95H218.498C218.516 83.716 218.552 83.41 218.552 83.194ZM213.53 80.296C214.79 80.296 215.708 81.088 215.906 82.312H211.136C211.334 81.07 212.252 80.296 213.53 80.296ZM223.679 88.144C226.577 88.144 228.251 86.866 228.251 85.066C228.251 81.25 222.401 82.852 222.401 81.196C222.401 80.692 222.941 80.296 224.201 80.296C225.083 80.296 226.037 80.476 226.991 81.016L227.927 79.018C227.009 78.478 225.533 78.172 224.201 78.172C221.375 78.172 219.719 79.468 219.719 81.304C219.719 85.174 225.569 83.554 225.569 85.138C225.569 85.678 225.083 86.02 223.787 86.02C222.599 86.02 221.285 85.642 220.421 85.084L219.485 87.1C220.385 87.694 222.041 88.144 223.679 88.144ZM230.182 83.626H232.414L232.972 75.4H229.624L230.182 83.626ZM231.298 88.144C232.306 88.144 233.026 87.406 233.026 86.506C233.026 85.588 232.306 84.904 231.298 84.904C230.29 84.904 229.57 85.588 229.57 86.506C229.57 87.406 230.29 88.144 231.298 88.144Z" fill="#4B4B4B"/>
<rect x="57" y="505" width="250" height="40" rx="20" fill="#2E71FE"/>
<path d="M162.256 529.232V526.112H166.6V525.356H162.256V522.368H167.128V521.6H161.368V530H167.308V529.232H162.256ZM172.431 523.64C171.339 523.64 170.487 524.084 170.031 524.852V523.688H169.215V530H170.067V526.688C170.067 525.248 170.919 524.408 172.275 524.408C173.475 524.408 174.171 525.092 174.171 526.424V530H175.023V526.34C175.023 524.528 173.967 523.64 172.431 523.64ZM180.36 529.004C180.12 529.22 179.772 529.328 179.424 529.328C178.716 529.328 178.332 528.92 178.332 528.176V524.408H180.252V523.688H178.332V522.308H177.48V523.688H176.352V524.408H177.48V528.224C177.48 529.388 178.14 530.06 179.328 530.06C179.82 530.06 180.324 529.916 180.66 529.616L180.36 529.004ZM187.497 526.844C187.497 524.948 186.213 523.64 184.437 523.64C182.661 523.64 181.353 524.972 181.353 526.844C181.353 528.716 182.697 530.06 184.665 530.06C185.661 530.06 186.537 529.7 187.101 529.028L186.621 528.476C186.141 529.028 185.457 529.304 184.689 529.304C183.309 529.304 182.301 528.428 182.205 527.108H187.485C187.485 527.012 187.497 526.916 187.497 526.844ZM184.437 524.372C185.673 524.372 186.573 525.236 186.681 526.472H182.205C182.313 525.236 183.213 524.372 184.437 524.372ZM192.447 523.64C191.355 523.64 190.503 524.084 190.047 524.852V523.688H189.231V530H190.083V526.688C190.083 525.248 190.935 524.408 192.291 524.408C193.491 524.408 194.187 525.092 194.187 526.424V530H195.039V526.34C195.039 524.528 193.983 523.64 192.447 523.64ZM202.284 521.096V524.888C201.756 524.072 200.892 523.64 199.884 523.64C198.084 523.64 196.74 524.936 196.74 526.844C196.74 528.752 198.084 530.06 199.884 530.06C200.928 530.06 201.804 529.604 202.32 528.752V530H203.136V521.096H202.284ZM199.956 529.304C198.612 529.304 197.604 528.32 197.604 526.844C197.604 525.368 198.612 524.384 199.956 524.384C201.288 524.384 202.296 525.368 202.296 526.844C202.296 528.32 201.288 529.304 199.956 529.304ZM205.94 522.308C206.3 522.308 206.564 522.032 206.564 521.684C206.564 521.36 206.288 521.096 205.94 521.096C205.592 521.096 205.316 521.372 205.316 521.696C205.316 522.032 205.592 522.308 205.94 522.308ZM205.508 530H206.36V523.688H205.508V530ZM208.767 527.48H209.427L209.607 521.6H208.599L208.767 527.48ZM209.103 530.06C209.463 530.06 209.727 529.772 209.727 529.436C209.727 529.088 209.463 528.824 209.103 528.824C208.743 528.824 208.467 529.088 208.467 529.436C208.467 529.772 208.743 530.06 209.103 530.06Z" fill="white"/>
</svg>
